{"glyphs":{"0":{"ha":904,"x_min":0,"x_max":0,"o":"m 399 -4 b 864 472 610 -4 864 142 b 489 901 864 710 732 901 b 39 418 278 901 39 754 b 399 -4 39 176 164 -4 z m 451 40 b 185 432 288 40 185 210 b 440 850 185 629 264 850 b 726 433 610 850 726 647 b 451 40 726 238 628 40 z "},"1":{"ha":289,"x_min":0,"x_max":0,"o":"m 239 0 l 239 931 l 4 858 l 4 832 b 99 761 57 831 99 817 l 99 0 z "},"2":{"ha":622,"x_min":0,"x_max":0,"o":"m 607 0 l 607 96 l 153 96 b 396 304 243 164 331 239 b 583 650 519 428 583 535 b 335 901 583 756 529 901 b 82 786 225 901 138 856 l 106 767 b 269 842 157 817 203 842 b 439 638 417 842 439 724 b 279 265 439 503 385 383 b 11 0 240 221 149 133 z "},"3":{"ha":551,"x_min":0,"x_max":0,"o":"m 71 -237 b 526 193 265 -204 526 -75 b 332 440 526 340 447 418 b 507 692 433 483 507 583 b 264 901 507 819 406 901 b 17 786 161 901 58 857 l 40 767 b 207 839 103 821 154 839 b 382 651 325 839 382 749 b 176 426 382 533 299 458 l 176 390 b 221 397 190 396 206 397 b 406 183 339 397 406 315 b 58 -214 406 -10 265 -149 z "},"4":{"ha":669,"x_min":0,"x_max":0,"o":"m 575 -237 l 575 0 l 658 0 l 658 39 l 575 39 l 575 936 l 6 0 l 435 0 l 435 -237 z m 435 39 l 124 39 l 435 558 z "},"5":{"ha":522,"x_min":0,"x_max":0,"o":"m 72 -237 b 461 278 325 -140 461 39 b 119 753 461 494 349 621 l 125 767 l 511 767 l 511 882 l 99 882 l 21 718 b 325 240 219 608 325 476 b 72 -189 325 14 228 -110 z "},"6":{"ha":651,"x_min":0,"x_max":0,"o":"m 453 1075 b 39 393 174 983 39 694 b 338 -22 39 135 139 -22 b 621 306 517 -22 621 107 b 368 615 621 492 528 615 b 167 507 281 615 217 579 b 460 1035 188 806 253 961 z m 167 461 b 328 528 207 503 264 528 b 489 269 442 528 489 450 b 356 18 489 117 456 18 b 164 379 233 18 164 164 b 167 461 164 408 164 436 z "},"7":{"ha":611,"x_min":0,"x_max":0,"o":"m 200 -237 l 606 882 l 11 882 l 11 756 l 479 756 l 128 -237 z "},"8":{"ha":694,"x_min":0,"x_max":0,"o":"m 426 649 b 625 900 558 717 625 800 b 351 1110 625 1028 517 1110 b 61 861 165 1110 61 1007 b 253 586 61 754 117 663 b 31 269 115 525 31 417 b 342 -22 31 104 139 -22 b 664 300 533 -22 664 93 b 426 649 664 472 571 571 z m 390 668 b 156 944 260 726 156 832 b 329 1069 156 1029 231 1069 b 532 893 456 1069 532 1003 b 390 668 532 797 474 715 z m 294 569 b 567 260 457 504 567 396 b 344 19 567 136 474 19 b 138 275 221 19 138 124 b 294 569 138 396 190 510 z "},"9":{"ha":646,"x_min":0,"x_max":0,"o":"m 154 -237 b 607 479 488 -140 607 179 b 314 901 607 758 506 901 b 28 578 138 901 28 775 b 299 243 28 385 131 243 b 479 340 378 243 436 275 b 146 -196 463 83 343 -142 z m 481 389 b 360 333 450 350 408 333 b 149 633 218 333 149 474 b 290 861 149 761 194 861 b 482 475 413 861 482 701 b 481 389 482 444 482 417 z "},"\u0017":{"ha":356,"x_min":0,"x_max":0,"o":""}," ":{"ha":356,"x_min":0,"x_max":0,"o":""},"!":{"ha":290,"x_min":0,"x_max":0,"o":"m 144 -12 b 229 72 193 -12 229 25 b 144 157 229 119 193 157 b 61 72 99 157 61 119 b 144 -12 61 25 99 -12 z m 171 265 b 218 804 206 676 204 686 b 267 1100 249 1074 267 1071 b 144 1174 267 1139 236 1174 b 24 1101 56 1174 24 1139 b 74 804 24 1072 43 1074 b 121 265 89 663 93 582 z "},"\"":{"ha":440,"x_min":0,"x_max":0,"o":"m 144 825 b 201 1061 144 917 201 1010 b 115 1133 201 1096 176 1133 b 29 1061 57 1133 29 1096 b 86 825 29 1010 86 917 z m 351 825 b 408 1061 351 917 408 1010 b 322 1133 408 1096 383 1133 b 236 1061 264 1133 236 1096 b 293 825 236 1010 293 917 z "},"#":{"ha":657,"x_min":0,"x_max":0,"o":"m 399 0 l 439 354 l 583 354 l 593 431 l 449 431 l 474 661 l 618 661 l 629 739 l 482 739 l 526 1110 l 467 1110 l 422 739 l 258 739 l 303 1110 l 243 1110 l 199 739 l 61 739 l 51 661 l 192 661 l 165 431 l 28 431 l 18 354 l 156 354 l 117 0 l 176 0 l 215 354 l 379 354 l 340 0 z m 388 431 l 224 431 l 250 661 l 415 661 z "},"$":{"ha":579,"x_min":0,"x_max":0,"o":"m 374 0 l 374 115 b 565 347 485 144 565 224 b 374 599 565 457 503 518 l 374 956 b 504 858 428 944 472 906 l 547 892 b 374 1008 500 956 451 997 l 374 1110 l 335 1110 l 335 1013 b 253 1004 304 1013 276 1010 l 253 1110 l 214 1110 l 214 994 b 44 776 118 963 44 889 b 214 550 44 651 138 594 l 214 157 b 67 296 142 174 83 225 l 15 263 b 214 104 49 179 106 119 l 214 0 l 253 0 l 253 101 b 335 107 290 101 311 103 l 335 0 z m 335 172 b 254 153 310 160 283 153 l 253 153 l 253 528 l 335 478 z m 335 622 l 253 672 l 253 943 b 335 961 278 954 306 961 z m 374 447 b 422 326 403 417 422 378 b 374 200 422 275 404 232 z m 214 704 b 171 813 186 733 171 768 b 214 917 171 858 188 892 z "},"%":{"ha":989,"x_min":0,"x_max":0,"o":"m 231 578 b 494 861 350 578 494 661 b 283 1117 494 1006 421 1117 b 25 828 158 1117 25 1028 b 231 578 25 685 94 578 z m 315 0 l 763 1110 l 676 1110 l 238 0 z m 700 -21 b 964 264 821 -21 964 65 b 751 518 964 408 889 518 b 493 232 632 518 493 432 b 700 -21 493 88 564 -21 z m 254 631 b 122 833 178 631 122 703 b 256 1063 122 968 179 1063 b 400 842 333 1063 400 967 b 254 631 400 728 346 631 z m 724 32 b 590 238 647 32 590 103 b 725 465 590 369 647 465 b 868 244 803 465 868 367 b 724 32 868 131 813 32 z "},"&":{"ha":846,"x_min":0,"x_max":0,"o":"m 825 35 b 750 15 796 18 764 15 b 621 200 664 15 621 111 l 621 533 l 736 533 l 736 574 l 621 574 l 621 789 b 417 569 601 639 521 569 b 214 817 278 569 214 693 b 426 1071 214 963 303 1071 b 539 1035 464 1071 506 1061 l 567 1064 b 392 1121 524 1101 465 1121 b 82 829 218 1121 82 1003 b 233 586 82 706 149 596 b 33 292 107 557 33 454 b 329 -22 33 100 136 -22 b 526 75 444 -22 482 21 b 710 -22 568 19 619 -22 b 838 4 751 -22 806 -14 z m 474 261 b 511 93 474 211 486 129 b 379 32 464 54 428 32 b 199 296 254 32 199 168 b 397 533 199 450 281 533 l 474 533 z "},"'":{"ha":233,"x_min":0,"x_max":0,"o":"m 144 825 b 201 1061 144 917 201 1010 b 115 1133 201 1096 176 1133 b 29 1061 57 1133 29 1096 b 86 825 29 1010 86 917 z "},"(":{"ha":329,"x_min":0,"x_max":0,"o":"m 329 -190 b 143 517 228 -172 143 -15 b 329 1225 143 1049 228 1206 l 325 1243 b 51 515 176 1225 51 1114 b 325 -208 51 -82 176 -190 z "},")":{"ha":329,"x_min":0,"x_max":0,"o":"m 4 -208 b 278 515 153 -190 278 -82 b 4 1243 278 1114 153 1225 l 0 1225 b 185 517 101 1206 185 1049 b 0 -190 185 -15 101 -172 z "},"*":{"ha":432,"x_min":0,"x_max":0,"o":"m 343 750 l 399 814 l 242 915 l 417 979 l 374 1056 l 229 936 l 221 1124 l 138 1106 l 206 931 l 24 979 l 15 896 l 201 907 l 99 750 l 178 714 l 224 896 z "},"+":{"ha":426,"x_min":0,"x_max":0,"o":"m 246 356 l 246 531 l 410 531 l 410 589 l 246 589 l 246 753 l 178 753 l 178 589 l 19 589 l 19 531 l 178 531 l 178 356 z "},",":{"ha":233,"x_min":0,"x_max":0,"o":"m 76 -115 b 200 68 140 -90 200 -1 b 119 157 200 122 165 157 b 32 86 83 157 44 138 b 111 1 90 86 111 61 b 76 -115 111 -42 100 -82 z "},"-":{"ha":418,"x_min":0,"x_max":0,"o":"m 396 451 l 396 528 l 21 528 l 21 451 z "},".":{"ha":233,"x_min":0,"x_max":0,"o":"m 118 -12 b 200 72 165 -12 200 25 b 118 157 200 119 165 157 b 32 72 71 157 32 119 b 118 -12 32 25 71 -12 z "},"/":{"ha":507,"x_min":0,"x_max":0,"o":"m 85 -119 l 507 1110 l 431 1110 l 0 -119 z "},":":{"ha":271,"x_min":0,"x_max":0,"o":"m 138 535 b 219 619 185 535 219 572 b 138 704 219 667 185 704 b 51 619 90 704 51 667 b 138 535 51 572 90 535 z m 138 119 b 219 204 185 119 219 157 b 138 289 219 251 185 289 b 51 204 90 289 51 251 b 138 119 51 157 90 119 z "},";":{"ha":271,"x_min":0,"x_max":0,"o":"m 138 535 b 219 619 185 535 219 572 b 138 704 219 667 185 704 b 51 619 90 704 51 667 b 138 535 51 572 90 535 z m 96 17 b 219 200 160 42 219 131 b 139 289 219 254 185 289 b 51 218 103 289 64 269 b 131 133 110 218 131 193 b 96 17 131 90 119 50 z "},"<":{"ha":336,"x_min":0,"x_max":0,"o":"m 308 364 l 118 556 l 315 753 l 208 725 l 19 533 l 213 339 z "},"=":{"ha":406,"x_min":0,"x_max":0,"o":"m 375 604 l 375 650 l 29 650 l 29 604 z m 375 463 l 375 507 l 29 507 l 29 463 z "},">":{"ha":336,"x_min":0,"x_max":0,"o":"m 126 364 l 315 556 l 122 750 l 24 725 l 217 533 l 19 338 z "},"?":{"ha":550,"x_min":0,"x_max":0,"o":"m 283 235 b 225 394 231 343 225 360 b 299 522 225 414 226 431 b 449 710 350 588 410 657 b 533 914 500 778 533 840 b 282 1121 533 1025 453 1121 b 11 1007 189 1121 64 1092 l 42 972 b 233 1072 92 1036 160 1072 b 396 913 343 1072 396 997 b 346 788 396 871 385 840 l 201 607 b 128 458 158 551 128 501 b 242 222 128 432 139 401 z m 253 -12 b 338 72 301 -12 338 25 b 253 157 338 119 301 157 b 169 72 207 157 169 119 b 253 -12 169 25 207 -12 z "},"@":{"ha":1035,"x_min":0,"x_max":0,"o":"m 669 -129 b 561 -146 635 -139 599 -146 b 147 392 351 -146 147 89 b 525 881 147 657 306 881 b 892 426 689 881 892 757 b 750 151 892 224 814 151 b 688 236 706 151 688 192 l 688 629 l 640 633 l 628 564 b 485 653 604 626 538 653 b 329 386 383 653 329 549 b 493 92 329 224 383 92 b 614 182 550 92 599 131 b 740 92 642 110 686 92 b 996 478 910 92 996 272 b 553 944 996 806 778 944 b 39 347 254 944 39 699 b 510 -199 39 4 246 -199 b 669 -167 567 -199 625 -190 z m 608 250 b 536 178 601 226 583 178 b 428 397 490 178 428 225 b 518 589 428 549 476 589 b 608 500 561 589 599 543 z "},"A":{"ha":586,"x_min":0,"x_max":0,"o":"m 576 0 l 364 1110 l 219 1110 l 11 0 l 64 0 l 111 251 l 385 251 l 431 0 z m 378 292 l 118 292 l 250 985 z "},"B":{"ha":651,"x_min":0,"x_max":0,"o":"m 257 0 b 626 296 489 0 626 110 b 424 575 626 444 536 550 b 579 828 513 607 579 692 b 325 1110 579 996 489 1110 l 50 1110 l 50 0 z m 194 575 l 194 1071 l 264 1071 b 444 807 382 1071 444 968 b 314 575 444 667 394 575 z m 194 39 l 194 535 l 300 535 b 474 306 417 535 474 461 b 264 39 474 129 396 39 z "},"C":{"ha":721,"x_min":0,"x_max":0,"o":"m 638 168 b 422 21 603 82 501 21 b 190 565 274 21 190 247 b 442 1082 190 881 272 1082 b 647 932 538 1082 613 1017 l 706 947 b 431 1121 633 1081 558 1121 b 39 529 153 1121 39 928 b 374 -22 39 132 153 -22 b 694 168 510 -22 628 36 z "},"D":{"ha":775,"x_min":0,"x_max":0,"o":"m 257 0 b 736 526 601 0 736 139 b 365 1110 736 792 672 1110 l 50 1110 l 50 0 z m 194 39 l 194 1071 l 264 1071 b 589 525 468 1071 589 879 b 304 39 589 243 513 39 z "},"E":{"ha":632,"x_min":0,"x_max":0,"o":"m 606 0 l 606 39 l 194 39 l 194 536 l 432 536 l 432 576 l 194 576 l 194 1071 l 606 1071 l 606 1110 l 50 1110 l 50 0 z "},"F":{"ha":626,"x_min":0,"x_max":0,"o":"m 194 0 l 194 525 l 483 525 l 483 564 l 194 564 l 194 1071 l 604 1071 l 604 1110 l 50 1110 l 50 0 z "},"G":{"ha":731,"x_min":0,"x_max":0,"o":"m 725 13 b 682 201 700 58 682 136 l 682 422 l 465 422 l 465 383 b 557 303 546 379 557 378 b 397 21 557 118 488 21 b 190 547 264 21 190 226 b 435 1082 190 882 271 1082 b 633 932 525 1082 600 1025 l 690 947 b 417 1121 629 1064 564 1121 b 39 519 144 1121 39 925 b 351 -22 39 92 157 -22 b 626 144 521 -22 588 65 b 678 -15 626 99 656 21 z "},"H":{"ha":725,"x_min":0,"x_max":0,"o":"m 675 0 l 675 1110 l 529 1110 l 529 592 l 194 592 l 194 1110 l 50 1110 l 50 0 l 194 0 l 194 553 l 529 553 l 529 0 z "},"I":{"ha":246,"x_min":0,"x_max":0,"o":"m 194 0 l 194 1110 l 50 1110 l 50 0 z "},"J":{"ha":622,"x_min":0,"x_max":0,"o":"m 429 217 b 263 21 429 107 376 21 b 60 217 147 21 60 108 l 60 271 l 11 271 l 11 217 b 274 -22 11 86 100 -22 b 575 281 449 -22 575 88 l 575 1110 l 429 1110 z "},"K":{"ha":685,"x_min":0,"x_max":0,"o":"m 674 0 l 336 722 l 661 1110 l 601 1110 l 194 624 l 194 1110 l 50 1110 l 50 0 l 194 0 l 194 556 l 238 606 l 517 0 z "},"L":{"ha":506,"x_min":0,"x_max":0,"o":"m 494 0 l 494 39 l 194 39 l 194 1110 l 50 1110 l 50 0 z "},"M":{"ha":856,"x_min":0,"x_max":0,"o":"m 806 0 l 806 1110 l 710 1110 l 443 350 l 167 1110 l 50 1110 l 50 0 l 108 0 l 108 842 l 396 88 l 663 842 l 663 0 z "},"N":{"ha":665,"x_min":0,"x_max":0,"o":"m 615 0 l 615 1110 l 554 1110 l 554 354 l 178 1110 l 50 1110 l 50 1 l 111 1 l 111 938 l 596 0 z "},"O":{"ha":854,"x_min":0,"x_max":0,"o":"m 393 -22 b 814 575 694 -22 814 175 b 447 1121 814 999 679 1121 b 39 529 146 1121 39 915 b 393 -22 39 60 199 -22 z m 426 18 b 192 557 275 18 192 251 b 426 1079 192 872 281 1079 b 657 549 575 1079 657 865 b 426 18 657 229 572 18 z "},"P":{"ha":653,"x_min":0,"x_max":0,"o":"m 194 0 l 194 479 l 271 479 b 622 806 526 479 622 583 b 356 1110 622 994 551 1110 l 50 1110 l 50 0 z m 194 519 l 194 1071 l 271 1071 b 475 799 443 1071 475 943 b 276 519 475 661 446 519 z "},"Q":{"ha":853,"x_min":0,"x_max":0,"o":"m 522 -8 b 735 -144 583 -94 656 -144 b 853 -115 772 -144 806 -135 b 608 26 775 -99 701 -54 b 814 575 751 106 814 289 b 447 1121 814 999 679 1121 b 39 529 146 1121 39 915 b 392 -22 39 60 199 -22 b 522 -8 440 -22 482 -18 z m 426 18 b 192 557 275 18 192 251 b 426 1079 192 872 281 1079 b 657 549 575 1079 657 865 b 426 18 657 229 572 18 z "},"R":{"ha":696,"x_min":0,"x_max":0,"o":"m 471 121 b 639 -17 471 42 518 -17 b 696 -8 671 -17 679 -12 b 615 121 642 7 615 50 l 615 329 b 460 551 615 461 551 535 b 613 818 564 583 613 689 b 353 1110 613 992 526 1110 l 50 1110 l 50 0 l 194 0 l 194 535 l 347 535 b 471 386 421 535 471 488 z m 194 575 l 194 1071 l 260 1071 b 468 803 397 1071 468 989 b 346 575 468 661 426 575 z "},"S":{"ha":588,"x_min":0,"x_max":0,"o":"m 18 139 b 253 -22 56 42 122 -22 b 558 256 432 -22 558 100 b 454 506 558 350 513 440 b 242 710 410 553 282 668 b 174 882 192 763 174 815 b 326 1071 174 1006 238 1071 b 485 967 400 1071 447 1026 l 528 1000 b 319 1121 472 1078 425 1121 b 47 854 149 1121 47 1007 b 133 633 47 769 78 699 b 353 413 194 560 296 482 b 417 235 394 361 417 310 b 250 28 417 99 349 28 b 69 171 151 28 89 100 z "},"T":{"ha":568,"x_min":0,"x_max":0,"o":"m 360 0 l 360 1071 l 557 1071 l 557 1110 l 11 1110 l 11 1071 l 214 1071 l 214 0 z "},"U":{"ha":660,"x_min":0,"x_max":0,"o":"m 551 192 b 394 25 551 90 499 25 b 193 211 279 25 193 107 l 193 1110 l 47 1110 l 47 192 b 314 -22 47 39 129 -22 b 613 233 432 -22 613 3 l 613 1110 l 551 1110 z "},"V":{"ha":588,"x_min":0,"x_max":0,"o":"m 367 0 l 578 1110 l 522 1110 l 336 136 l 154 1110 l 11 1110 l 222 0 z "},"W":{"ha":851,"x_min":0,"x_max":0,"o":"m 669 0 l 840 1110 l 786 1110 l 633 136 l 494 761 l 578 1110 l 522 1110 l 468 846 l 418 1110 l 274 1110 l 393 576 l 289 136 l 154 1110 l 11 1110 l 169 0 l 314 0 l 421 471 l 525 0 z "},"X":{"ha":619,"x_min":0,"x_max":0,"o":"m 608 0 l 379 607 l 608 1110 l 543 1110 l 350 683 l 190 1110 l 38 1110 l 254 535 l 11 0 l 75 0 l 283 458 l 457 0 z "},"Y":{"ha":590,"x_min":0,"x_max":0,"o":"m 361 0 l 361 606 l 582 1110 l 515 1110 l 331 686 l 168 1110 l 11 1110 l 217 588 l 217 0 z "},"Z":{"ha":639,"x_min":0,"x_max":0,"o":"m 625 0 l 625 39 l 201 39 l 606 1110 l 17 1110 l 17 1071 l 440 1071 l 31 0 z "},"[":{"ha":329,"x_min":0,"x_max":0,"o":"m 303 -194 l 303 -156 l 149 -156 l 149 1193 l 303 1193 l 303 1231 l 72 1231 l 72 -194 z "},"\\":{"ha":507,"x_min":0,"x_max":0,"o":"m 507 -121 l 75 1110 l 0 1110 l 421 -121 z "},"]":{"ha":329,"x_min":0,"x_max":0,"o":"m 257 -194 l 257 1231 l 28 1231 l 28 1193 l 181 1193 l 181 -156 l 28 -156 l 28 -194 z "},"^":{"ha":554,"x_min":0,"x_max":0,"o":"m 554 888 l 335 1110 l 222 1110 l -1 888 l 61 888 l 222 1047 l 388 888 z "},"_":{"ha":829,"x_min":0,"x_max":0,"o":"m 833 -164 l 833 -86 l -6 -86 l -6 -164 z "},"`":{"ha":271,"x_min":0,"x_max":0,"o":"m 256 979 l 126 1208 b 68 1243 114 1231 94 1243 b 8 1189 32 1243 8 1218 b 36 1136 8 1172 18 1154 l 219 949 z "},"a":{"ha":639,"x_min":0,"x_max":0,"o":"m 444 183 b 290 21 422 97 367 21 b 169 226 207 21 169 107 b 275 431 169 335 200 396 b 444 525 368 475 404 493 z m 624 0 b 589 114 599 31 589 65 l 589 694 b 343 901 589 806 518 901 b 82 783 229 901 140 861 l 126 761 b 290 849 174 821 215 849 b 444 674 404 849 444 785 l 444 571 b 247 468 396 528 379 521 b 25 199 125 419 25 356 b 250 -22 25 75 89 -22 b 443 85 369 -22 415 29 b 474 0 443 61 454 26 z "},"b":{"ha":696,"x_min":0,"x_max":0,"o":"m 165 0 l 194 101 b 367 -22 217 25 279 -22 b 657 468 546 -22 657 175 b 397 901 657 732 565 901 b 194 749 306 901 231 851 l 194 1133 l 50 1088 l 50 0 z m 194 667 b 351 832 219 768 276 832 b 508 435 481 832 508 639 b 361 14 508 171 464 14 b 194 207 288 14 219 101 z "},"c":{"ha":624,"x_min":0,"x_max":0,"o":"m 571 149 b 411 25 521 61 472 25 b 190 468 271 25 190 197 b 400 861 190 692 246 861 b 542 756 478 861 515 817 l 586 774 b 386 901 547 857 500 901 b 39 443 176 901 39 744 b 371 -22 39 168 154 -22 b 603 135 501 -22 550 46 z "},"d":{"ha":683,"x_min":0,"x_max":0,"o":"m 633 0 l 633 1133 l 488 1088 l 488 757 b 296 901 453 860 379 901 b 39 472 122 901 39 721 b 307 -22 39 222 125 -22 b 488 103 394 -22 456 31 l 518 0 z m 488 222 b 353 29 478 151 424 29 b 182 514 264 29 182 219 b 328 850 182 750 233 850 b 488 653 422 850 460 749 z "},"e":{"ha":706,"x_min":0,"x_max":0,"o":"m 565 149 b 410 25 513 61 468 25 b 196 436 264 25 196 240 b 197 497 196 461 196 486 l 678 497 b 396 901 678 717 588 901 b 39 418 194 901 39 701 b 361 -22 39 175 154 -22 b 599 135 481 -22 543 44 z m 204 551 b 388 854 224 710 271 854 b 561 551 515 854 561 683 z "},"f":{"ha":440,"x_min":0,"x_max":0,"o":"m 226 0 l 226 843 l 343 843 l 343 882 l 226 882 l 226 896 b 346 1092 226 994 274 1092 b 426 1072 367 1092 396 1083 l 440 1103 b 317 1133 399 1125 358 1133 b 82 906 158 1133 82 1008 l 82 882 l 11 882 l 11 843 l 82 843 l 82 0 z "},"g":{"ha":765,"x_min":0,"x_max":0,"o":"m 643 -128 b 346 -190 521 -169 424 -190 b 138 -54 193 -190 138 -111 b 403 124 138 31 263 97 b 240 194 293 142 240 168 b 261 224 240 203 247 213 b 361 211 290 217 317 211 b 692 551 568 211 692 324 b 658 732 692 619 681 678 b 765 860 726 732 750 758 b 663 796 739 817 703 796 b 613 806 647 796 632 799 b 399 901 560 865 497 901 b 56 550 189 901 56 738 b 210 246 56 438 104 306 b 103 183 136 226 103 206 b 239 115 103 157 149 136 b 0 -83 99 90 0 15 b 288 -237 0 -183 101 -237 b 658 -158 422 -237 542 -210 z m 417 254 b 186 607 292 254 186 382 b 336 849 186 765 239 849 b 563 479 478 849 563 672 b 417 254 563 328 510 254 z "},"h":{"ha":663,"x_min":0,"x_max":0,"o":"m 615 0 l 615 669 b 394 901 615 804 528 901 b 194 764 268 901 217 814 l 194 1133 l 50 1088 l 50 0 l 194 0 l 194 669 b 336 831 215 765 260 831 b 471 649 415 831 471 761 l 471 0 z "},"i":{"ha":246,"x_min":0,"x_max":0,"o":"m 125 986 b 208 1072 171 986 208 1026 b 125 1157 208 1119 174 1157 b 40 1072 79 1157 40 1119 b 125 986 40 1026 79 986 z m 194 0 l 194 890 l 50 846 l 50 0 z "},"j":{"ha":271,"x_min":0,"x_max":0,"o":"m 154 986 b 239 1074 200 986 239 1025 b 154 1157 239 1119 200 1157 b 71 1074 107 1157 71 1118 b 154 986 71 1026 107 986 z m -149 -235 b 222 103 140 -189 222 -108 l 222 890 l 76 846 l 76 19 b -164 -207 76 -106 3 -165 z "},"k":{"ha":657,"x_min":0,"x_max":0,"o":"m 646 0 l 357 576 l 629 882 l 574 882 l 194 463 l 194 1133 l 50 1088 l 50 0 l 194 0 l 194 394 l 257 464 l 490 0 z "},"l":{"ha":242,"x_min":0,"x_max":0,"o":"m 194 0 l 194 1133 l 50 1088 l 50 0 z "},"m":{"ha":960,"x_min":0,"x_max":0,"o":"m 914 0 l 914 686 b 710 901 914 811 849 901 b 514 801 629 901 561 868 b 372 901 488 872 431 901 b 194 776 290 901 222 847 l 194 890 l 50 846 l 50 0 l 194 0 l 194 676 b 331 850 215 750 263 850 b 413 688 379 850 413 799 l 413 0 l 556 0 l 556 676 b 692 850 576 750 624 850 b 772 688 740 850 772 799 l 772 0 z "},"n":{"ha":663,"x_min":0,"x_max":0,"o":"m 615 0 l 615 669 b 393 901 615 804 528 901 b 194 764 267 901 215 815 l 194 890 l 50 846 l 50 0 l 194 0 l 194 669 b 336 831 215 765 260 831 b 471 649 415 831 471 761 l 471 0 z "},"o":{"ha":724,"x_min":0,"x_max":0,"o":"m 346 -22 b 685 461 550 -22 685 107 b 375 901 685 754 590 901 b 39 417 121 901 39 699 b 346 -22 39 128 125 -22 z m 383 22 b 185 482 250 22 185 178 b 335 851 185 751 236 851 b 547 378 457 851 547 697 b 383 22 547 111 483 22 z "},"p":{"ha":683,"x_min":0,"x_max":0,"o":"m 194 -237 l 194 126 b 386 -22 229 29 294 -22 b 643 415 560 -22 643 163 b 368 901 643 663 563 901 b 182 768 278 901 232 849 l 150 890 l 50 846 l 50 -237 z m 194 661 b 331 853 204 731 260 853 b 503 368 419 853 503 664 b 356 32 503 133 450 32 b 194 229 261 32 224 136 z "},"q":{"ha":693,"x_min":0,"x_max":0,"o":"m 646 -237 l 646 846 l 576 890 l 521 768 b 328 901 483 847 422 901 b 39 413 149 901 39 706 b 300 -22 39 146 129 -22 b 501 138 396 -22 468 31 l 501 -237 z m 501 213 b 346 46 476 110 419 46 b 188 444 215 46 188 239 b 335 865 188 710 233 865 b 501 671 410 865 476 778 z "},"r":{"ha":465,"x_min":0,"x_max":0,"o":"m 194 0 l 194 600 b 346 790 226 703 279 790 b 385 779 361 790 375 786 l 454 869 b 375 901 432 890 407 901 b 194 686 299 901 239 836 l 194 890 l 50 846 l 50 0 z "},"s":{"ha":582,"x_min":0,"x_max":0,"o":"m 21 139 b 271 -22 53 54 131 -22 b 549 243 457 -22 549 108 b 451 429 549 324 514 386 b 232 563 396 469 299 511 b 157 700 181 603 157 643 b 306 847 157 799 224 847 b 463 753 369 847 425 819 l 504 789 b 297 901 468 858 392 901 b 33 644 142 901 33 790 b 122 460 33 569 64 507 b 324 331 175 417 264 374 b 413 186 388 283 413 239 b 253 31 413 96 342 31 b 71 171 165 31 101 96 z "},"t":{"ha":438,"x_min":0,"x_max":0,"o":"m 425 54 b 347 22 396 31 376 22 b 224 181 258 22 224 104 l 224 843 l 340 843 l 340 882 l 224 882 l 224 1065 l 211 1065 b 11 882 186 943 124 882 l 11 843 l 79 843 l 79 200 b 304 -22 79 69 146 -22 b 438 22 356 -22 400 -12 z "},"u":{"ha":663,"x_min":0,"x_max":0,"o":"m 613 0 l 613 890 l 468 844 l 468 219 b 308 29 453 142 410 29 b 192 219 235 29 192 92 l 192 890 l 47 844 l 47 200 b 275 -22 47 65 131 -22 b 468 103 375 -22 431 29 l 497 0 z "},"v":{"ha":599,"x_min":0,"x_max":0,"o":"m 313 0 l 588 882 l 539 882 l 344 260 l 167 882 l 11 882 l 296 0 z "},"w":{"ha":915,"x_min":0,"x_max":0,"o":"m 643 0 l 906 882 l 856 882 l 671 253 l 479 882 l 325 882 l 440 532 l 328 253 l 165 882 l 11 882 l 281 0 l 300 0 l 475 461 l 626 0 z "},"x":{"ha":603,"x_min":0,"x_max":0,"o":"m 592 0 l 363 481 l 583 882 l 532 882 l 339 533 l 172 882 l 15 882 l 240 410 l 11 0 l 69 0 l 264 357 l 436 0 z "},"y":{"ha":597,"x_min":0,"x_max":0,"o":"m 225 -60 b 28 -189 197 -139 110 -189 l 28 -237 b 294 -46 154 -237 256 -167 l 588 882 l 539 882 l 342 274 l 165 882 l 11 882 l 272 75 z "},"z":{"ha":603,"x_min":0,"x_max":0,"o":"m 571 0 l 571 39 l 182 39 l 588 882 l 38 882 l 38 843 l 424 843 l 17 0 z "},"{":{"ha":329,"x_min":0,"x_max":0,"o":"m 325 -186 b 206 0 250 -158 206 -100 b 224 242 206 63 224 167 b 83 517 224 354 185 465 b 224 792 185 569 224 679 b 206 1033 224 867 206 971 b 325 1219 206 1133 250 1193 l 325 1243 b 118 967 193 1217 118 1140 b 126 750 118 911 126 804 b 11 540 126 631 90 556 l 11 493 b 126 285 90 476 126 403 b 118 67 126 229 118 124 b 325 -210 118 -107 193 -183 z "},"|":{"ha":349,"x_min":0,"x_max":0,"o":"m 207 -147 l 207 1185 l 140 1185 l 140 -147 z "},"}":{"ha":329,"x_min":0,"x_max":0,"o":"m 4 -210 b 211 67 138 -183 211 -107 b 203 285 211 124 203 229 b 318 493 203 403 239 476 l 318 540 b 203 750 239 556 203 631 b 211 967 203 804 211 911 b 4 1243 211 1140 138 1217 l 4 1219 b 124 1033 81 1193 124 1133 b 106 792 124 971 106 867 b 247 517 106 679 143 569 b 106 242 143 465 106 354 b 124 0 106 167 124 63 b 4 -186 124 -100 81 -158 z "},"~":{"ha":801,"x_min":0,"x_max":0,"o":"m 681 726 b 568 586 671 617 608 586 b 256 753 472 586 419 753 b 46 536 142 753 54 672 l 124 536 b 228 678 147 649 189 678 b 539 507 322 678 379 507 b 754 726 650 507 753 589 z "}," ":{"ha":356,"x_min":0,"x_max":0,"o":""},"¡":{"ha":290,"x_min":0,"x_max":0,"o":"m 144 779 b 229 864 192 779 229 817 b 144 949 229 911 192 949 b 61 864 97 949 61 911 b 144 779 61 817 97 779 z m 119 671 b 72 132 85 260 86 246 b 24 -165 40 -137 24 -137 b 144 -237 24 -203 56 -237 b 267 -168 236 -237 267 -201 b 217 132 267 -139 244 -115 b 169 671 203 258 196 367 z "},"¢":{"ha":592,"x_min":0,"x_max":0,"o":"m 365 0 l 365 106 b 575 260 478 114 525 179 l 542 275 b 365 151 493 190 449 154 l 365 974 b 513 871 454 971 488 926 l 557 888 b 365 1013 519 968 472 1010 l 365 1110 l 326 1110 l 326 1011 b 24 561 138 994 24 840 b 326 106 24 299 124 117 l 326 0 z m 326 156 b 174 588 232 183 174 344 b 326 972 174 789 213 950 z "},"£":{"ha":710,"x_min":0,"x_max":0,"o":"m 694 76 b 504 21 626 32 563 21 b 264 46 418 21 340 46 b 171 29 232 46 200 42 b 260 388 226 128 260 260 l 567 388 l 567 426 l 258 426 b 183 800 242 558 183 665 b 410 1082 183 953 258 1082 b 625 932 508 1082 594 1025 l 682 947 b 406 1121 611 1078 542 1121 b 43 774 169 1121 43 993 b 97 426 43 651 83 549 l 49 426 l 49 388 l 107 388 b 29 14 107 218 75 108 l 63 -15 b 246 19 136 11 194 19 b 494 -8 340 19 411 -8 b 694 46 551 -8 614 4 z "},"¤":{"ha":719,"x_min":0,"x_max":0,"o":"m 719 246 l 585 379 b 628 572 613 426 628 489 b 593 743 628 642 617 700 l 719 869 l 669 918 l 550 799 b 371 853 508 835 449 853 b 174 789 282 853 218 829 l 49 915 l 8 874 l 138 744 b 92 544 104 692 92 622 b 125 374 92 475 101 418 l -6 244 l 44 194 l 168 318 b 347 265 210 283 268 265 b 549 332 431 265 500 285 l 676 204 z m 378 293 b 213 586 267 293 213 393 b 338 821 213 757 256 821 b 514 519 439 821 514 722 b 378 293 514 350 461 293 z "},"¥":{"ha":590,"x_min":0,"x_max":0,"o":"m 361 0 l 361 254 l 519 254 l 519 294 l 361 294 l 361 396 l 519 396 l 519 435 l 361 435 l 361 606 l 582 1110 l 515 1110 l 331 686 l 168 1110 l 11 1110 l 217 588 l 217 435 l 47 435 l 47 396 l 217 396 l 217 294 l 47 294 l 47 254 l 217 254 l 217 0 z "},"¦":{"ha":349,"x_min":0,"x_max":0,"o":"m 207 686 l 207 1185 l 140 1185 l 140 686 z m 207 -147 l 207 351 l 140 351 l 140 -147 z "},"¨":{"ha":440,"x_min":0,"x_max":0,"o":"m 361 986 b 444 1072 407 986 444 1026 b 361 1157 444 1119 410 1157 b 276 1072 314 1157 276 1119 b 361 986 276 1026 314 986 z m 125 986 b 208 1072 171 986 208 1026 b 125 1157 208 1119 174 1157 b 40 1072 79 1157 40 1119 b 125 986 40 1026 79 986 z "},"©":{"ha":1176,"x_min":0,"x_max":0,"o":"m 750 386 b 633 328 707 339 676 328 b 454 565 518 328 454 401 b 606 776 454 710 506 776 b 732 725 653 776 701 761 l 774 743 b 603 826 724 800 686 826 b 336 554 440 826 336 724 b 607 276 336 386 438 276 b 788 358 690 276 738 304 z m 588 36 b 124 549 318 36 124 279 b 588 1063 124 819 318 1063 b 1051 549 857 1063 1051 819 b 588 36 1051 279 857 36 z m 588 -22 b 1139 549 890 -22 1139 238 b 588 1121 1139 861 890 1121 b 35 549 285 1121 35 861 b 588 -22 35 238 285 -22 z "},"ª":{"ha":515,"x_min":0,"x_max":0,"o":"m 333 757 b 228 675 318 707 282 675 b 150 763 175 675 150 707 b 333 924 150 881 260 872 z m 453 643 b 431 707 436 660 431 679 l 431 1029 b 267 1144 431 1090 383 1144 b 92 1079 190 1144 131 1122 l 122 1050 b 236 1099 157 1088 183 1099 b 333 1018 307 1099 333 1078 l 333 971 b 54 757 239 899 54 908 b 204 631 54 683 97 631 b 333 690 283 631 314 660 b 353 643 333 676 340 658 z m 443 451 l 443 528 l 68 528 l 68 451 z "},"«":{"ha":469,"x_min":0,"x_max":0,"o":"m 253 0 l 101 440 l 253 882 l 178 882 l 22 440 l 178 0 z m 446 0 l 294 440 l 446 882 l 371 882 l 215 440 l 371 0 z "},"®":{"ha":732,"x_min":0,"x_max":0,"o":"m 528 650 b 494 699 514 653 494 660 l 494 739 b 426 807 494 779 472 804 b 493 890 471 817 493 850 b 392 978 493 946 454 978 l 251 978 l 251 639 l 314 639 l 314 789 l 363 789 b 417 756 399 789 417 778 l 417 700 b 492 631 417 653 442 631 b 528 636 508 631 524 633 z m 314 829 l 314 954 l 343 954 b 415 885 396 954 415 932 b 361 829 415 853 406 829 z m 635 806 b 365 542 635 679 533 542 b 97 806 197 542 97 679 b 365 1069 97 931 197 1069 b 635 806 533 1069 635 931 z m 700 806 b 365 1122 700 974 564 1122 b 31 806 168 1122 31 974 b 365 488 31 636 168 488 b 700 806 564 488 700 636 z "},"¯":{"ha":449,"x_min":0,"x_max":0,"o":"m 428 1074 l 428 1125 l 21 1125 l 21 1074 z "},"°":{"ha":458,"x_min":0,"x_max":0,"o":"m 226 719 b 428 924 329 719 428 811 b 226 1125 428 1039 329 1125 b 25 924 122 1125 25 1039 b 226 719 25 806 125 719 z m 226 796 b 97 924 160 796 97 849 b 226 1051 97 1003 160 1051 b 353 924 293 1051 353 1003 b 226 796 353 849 293 796 z "},"±":{"ha":426,"x_min":0,"x_max":0,"o":"m 246 356 l 246 531 l 410 531 l 410 589 l 246 589 l 246 753 l 178 753 l 178 589 l 19 589 l 19 531 l 178 531 l 178 356 z m 408 169 l 408 228 l 18 228 l 18 169 z "},"²":{"ha":396,"x_min":0,"x_max":0,"o":"m 381 569 l 381 640 l 129 640 b 367 961 288 758 367 861 b 210 1121 367 1028 333 1121 b 46 1042 140 1121 83 1090 l 76 1017 b 174 1065 110 1049 135 1065 b 261 949 249 1065 261 1003 b -8 569 261 842 213 781 z "},"³":{"ha":353,"x_min":0,"x_max":0,"o":"m 50 558 b 329 776 167 576 329 639 b 242 894 329 839 296 878 b 319 1014 282 921 319 965 b 169 1121 319 1076 257 1121 b 7 1053 103 1121 38 1094 l 36 1033 b 133 1068 75 1061 107 1068 b 224 992 193 1068 224 1032 b 106 896 224 943 176 911 l 106 850 b 144 861 117 858 129 861 b 238 769 200 861 238 825 b 29 593 238 683 153 624 z "},"´":{"ha":271,"x_min":0,"x_max":0,"o":"m 44 949 l 228 1136 b 256 1189 246 1154 256 1172 b 196 1243 256 1218 232 1243 b 138 1208 169 1243 150 1231 l 8 979 z "},"·":{"ha":233,"x_min":0,"x_max":0,"o":"m 199 547 b 115 633 199 596 164 633 b 31 547 69 633 31 596 b 115 465 31 503 69 465 b 199 547 164 465 199 503 z "},"¸":{"ha":257,"x_min":0,"x_max":0,"o":"m 22 -237 b 233 -129 179 -237 233 -186 b 131 -44 233 -71 181 -47 l 149 11 l 110 11 l 79 -69 b 144 -131 113 -69 144 -86 b 22 -197 144 -178 106 -197 z "},"¹":{"ha":196,"x_min":0,"x_max":0,"o":"m 163 569 l 163 1143 l 4 1093 l 4 1058 b 57 1028 35 1058 57 1053 l 57 569 z "},"º":{"ha":515,"x_min":0,"x_max":0,"o":"m 243 631 b 469 900 379 631 469 703 b 263 1144 469 1063 406 1144 b 39 875 93 1144 39 1032 b 243 631 39 714 96 631 z m 267 683 b 150 908 188 683 150 760 b 239 1089 150 1040 179 1089 b 364 857 310 1089 364 1013 b 267 683 364 728 326 683 z m 443 451 l 443 528 l 68 528 l 68 451 z "},"»":{"ha":469,"x_min":0,"x_max":0,"o":"m 99 0 l 253 442 l 99 882 l 22 882 l 175 442 l 22 0 z m 292 0 l 446 442 l 292 882 l 215 882 l 368 442 l 215 0 z "},"¼":{"ha":617,"x_min":0,"x_max":0,"o":"m 163 569 l 163 1143 l 4 1093 l 4 1058 b 57 1028 35 1058 57 1053 l 57 569 z m 65 0 l 513 1110 l 426 1110 l -12 0 z m 529 0 l 529 100 l 579 100 l 579 143 l 529 143 l 529 583 l 163 100 l 422 100 l 422 0 z m 422 143 l 301 143 l 422 303 z "},"½":{"ha":668,"x_min":0,"x_max":0,"o":"m 163 569 l 163 1143 l 4 1093 l 4 1058 b 57 1028 35 1058 57 1053 l 57 569 z m 65 0 l 513 1110 l 426 1110 l -12 0 z m 628 0 l 628 71 l 376 71 b 614 392 535 189 614 292 b 457 551 614 458 581 551 b 293 472 388 551 331 521 l 324 447 b 421 496 357 479 382 496 b 508 379 496 496 508 433 b 239 0 508 272 460 211 z "},"¾":{"ha":743,"x_min":0,"x_max":0,"o":"m 50 558 b 329 776 167 576 329 639 b 242 894 329 839 296 878 b 319 1014 282 921 319 965 b 169 1121 319 1076 257 1121 b 7 1053 103 1121 38 1094 l 36 1033 b 133 1068 75 1061 107 1068 b 224 992 193 1068 224 1032 b 106 896 224 943 176 911 l 106 850 b 144 861 117 858 129 861 b 238 769 200 861 238 825 b 29 593 238 683 153 624 z m 179 0 l 626 1110 l 540 1110 l 101 0 z m 658 0 l 658 100 l 708 100 l 708 143 l 658 143 l 658 583 l 292 100 l 551 100 l 551 0 z m 551 143 l 431 143 l 551 303 z "},"¿":{"ha":550,"x_min":0,"x_max":0,"o":"m 503 -36 b 310 -136 453 -100 385 -136 b 149 22 201 -136 149 -60 b 199 149 149 60 160 100 b 343 329 219 175 296 265 b 417 481 413 424 417 465 b 303 714 417 504 406 535 l 261 701 b 321 542 304 614 321 572 b 246 414 321 522 314 501 b 96 226 193 346 142 288 b 11 25 44 157 11 97 b 263 -185 11 -89 92 -185 b 533 -71 356 -185 481 -156 z m 290 779 b 375 864 338 779 375 817 b 290 949 375 911 338 949 b 207 864 243 949 207 911 b 290 779 207 817 243 779 z "},"À":{"ha":586,"x_min":0,"x_max":0,"o":"m 576 0 l 364 1110 l 219 1110 l 11 0 l 64 0 l 111 251 l 385 251 l 431 0 z m 378 292 l 118 292 l 250 985 z m 375 1207 l 246 1394 b 186 1429 229 1418 207 1429 b 128 1374 154 1429 128 1407 b 156 1322 128 1360 136 1339 l 339 1176 z "},"Á":{"ha":586,"x_min":0,"x_max":0,"o":"m 576 0 l 364 1110 l 219 1110 l 11 0 l 64 0 l 111 251 l 385 251 l 431 0 z m 378 292 l 118 292 l 250 985 z m 429 1322 b 458 1374 451 1339 458 1360 b 399 1429 458 1407 431 1429 b 342 1394 379 1429 356 1418 l 211 1207 l 247 1176 z "},"Â":{"ha":586,"x_min":0,"x_max":0,"o":"m 576 0 l 364 1110 l 219 1110 l 11 0 l 64 0 l 111 251 l 385 251 l 431 0 z m 378 292 l 118 292 l 250 985 z m 489 1207 l 351 1397 b 292 1429 333 1419 314 1429 b 233 1397 268 1429 249 1419 l 96 1207 l 132 1176 l 292 1317 l 453 1176 z "},"Ã":{"ha":586,"x_min":0,"x_max":0,"o":"m 576 0 l 364 1110 l 219 1110 l 11 0 l 64 0 l 111 251 l 385 251 l 431 0 z m 378 292 l 118 292 l 250 985 z m 472 1382 b 410 1313 469 1357 463 1313 b 206 1401 339 1313 303 1401 b 72 1256 128 1401 74 1344 l 111 1256 b 175 1326 117 1318 156 1326 b 376 1238 238 1326 281 1238 b 514 1382 453 1238 513 1296 z "},"Ä":{"ha":586,"x_min":0,"x_max":0,"o":"m 576 0 l 364 1110 l 219 1110 l 11 0 l 64 0 l 111 251 l 385 251 l 431 0 z m 378 292 l 118 292 l 250 985 z m 411 1214 b 494 1300 457 1214 494 1254 b 411 1385 494 1347 460 1385 b 326 1300 364 1385 326 1347 b 411 1214 326 1254 364 1214 z m 175 1214 b 258 1300 221 1214 258 1254 b 175 1385 258 1347 224 1385 b 90 1300 129 1385 90 1347 b 175 1214 90 1254 129 1214 z "},"Å":{"ha":586,"x_min":0,"x_max":0,"o":"m 576 0 l 364 1110 l 219 1110 l 11 0 l 64 0 l 111 251 l 385 251 l 431 0 z m 378 292 l 118 292 l 250 985 z m 293 1211 b 232 1301 251 1211 232 1253 b 293 1390 232 1350 251 1390 b 354 1301 336 1390 354 1350 b 293 1211 354 1253 336 1211 z m 293 1172 b 419 1301 358 1172 419 1228 b 293 1429 419 1374 358 1429 b 167 1301 228 1429 167 1374 b 293 1172 167 1228 228 1172 z "},"Æ":{"ha":913,"x_min":0,"x_max":0,"o":"m 885 0 l 885 39 l 524 39 l 524 536 l 711 536 l 711 576 l 524 576 l 524 1071 l 885 1071 l 885 1110 l 219 1110 l 11 0 l 150 0 l 197 251 l 376 251 l 376 0 z m 376 292 l 204 292 l 353 1071 l 376 1071 z "},"Ç":{"ha":721,"x_min":0,"x_max":0,"o":"m 300 -237 b 511 -129 457 -237 511 -186 b 408 -44 511 -71 458 -47 l 415 -19 b 694 168 533 -8 635 50 l 638 168 b 422 21 603 82 501 21 b 190 565 274 21 190 247 b 442 1082 190 881 272 1082 b 647 932 538 1082 613 1017 l 706 947 b 431 1121 633 1081 558 1121 b 39 529 153 1121 39 928 b 374 -22 39 132 153 -22 l 375 -22 l 357 -69 b 422 -131 390 -69 422 -86 b 300 -197 422 -178 383 -197 z "},"È":{"ha":632,"x_min":0,"x_max":0,"o":"m 606 0 l 606 39 l 194 39 l 194 536 l 432 536 l 432 576 l 194 576 l 194 1071 l 606 1071 l 606 1110 l 50 1110 l 50 0 z m 425 1207 l 296 1394 b 236 1429 279 1418 257 1429 b 178 1374 204 1429 178 1407 b 206 1322 178 1360 186 1339 l 389 1176 z "},"É":{"ha":632,"x_min":0,"x_max":0,"o":"m 606 0 l 606 39 l 194 39 l 194 536 l 432 536 l 432 576 l 194 576 l 194 1071 l 606 1071 l 606 1110 l 50 1110 l 50 0 z m 479 1322 b 508 1374 501 1339 508 1360 b 449 1429 508 1407 481 1429 b 392 1394 429 1429 406 1418 l 261 1207 l 297 1176 z "},"Ê":{"ha":632,"x_min":0,"x_max":0,"o":"m 606 0 l 606 39 l 194 39 l 194 536 l 432 536 l 432 576 l 194 576 l 194 1071 l 606 1071 l 606 1110 l 50 1110 l 50 0 z m 540 1207 l 403 1397 b 343 1429 385 1419 365 1429 b 285 1397 319 1429 300 1419 l 147 1207 l 183 1176 l 343 1317 l 504 1176 z "},"Ë":{"ha":632,"x_min":0,"x_max":0,"o":"m 606 0 l 606 39 l 194 39 l 194 536 l 432 536 l 432 576 l 194 576 l 194 1071 l 606 1071 l 606 1110 l 50 1110 l 50 0 z m 463 1214 b 546 1300 508 1214 546 1254 b 463 1385 546 1347 511 1385 b 378 1300 415 1385 378 1347 b 463 1214 378 1254 415 1214 z m 226 1214 b 310 1300 272 1214 310 1254 b 226 1385 310 1347 275 1385 b 142 1300 181 1385 142 1347 b 226 1214 142 1254 181 1214 z "},"Ì":{"ha":246,"x_min":0,"x_max":0,"o":"m 194 0 l 194 1110 l 50 1110 l 50 0 z m 204 1207 l 75 1394 b 15 1429 58 1418 36 1429 b -43 1374 -17 1429 -43 1407 b -15 1322 -43 1360 -35 1339 l 168 1176 z "},"Í":{"ha":246,"x_min":0,"x_max":0,"o":"m 194 0 l 194 1110 l 50 1110 l 50 0 z m 258 1322 b 288 1374 281 1339 288 1360 b 228 1429 288 1407 260 1429 b 171 1394 208 1429 185 1418 l 40 1207 l 76 1176 z "},"Î":{"ha":246,"x_min":0,"x_max":0,"o":"m 194 0 l 194 1110 l 50 1110 l 50 0 z m 319 1207 l 182 1397 b 122 1429 164 1419 144 1429 b 64 1397 99 1429 79 1419 l -74 1207 l -37 1176 l 122 1317 l 283 1176 z "},"Ï":{"ha":246,"x_min":0,"x_max":0,"o":"m 194 0 l 194 1110 l 50 1110 l 50 0 z m 242 1214 b 325 1300 288 1214 325 1254 b 242 1385 325 1347 290 1385 b 157 1300 194 1385 157 1347 b 242 1214 157 1254 194 1214 z m 6 1214 b 89 1300 51 1214 89 1254 b 6 1385 89 1347 54 1385 b -79 1300 -40 1385 -79 1347 b 6 1214 -79 1254 -40 1214 z "},"Ð":{"ha":797,"x_min":0,"x_max":0,"o":"m 283 0 b 761 526 629 0 761 139 b 392 1110 761 792 699 1110 l 76 1110 l 76 576 l 0 576 l 0 536 l 76 536 l 76 0 z m 221 39 l 221 536 l 460 536 l 460 576 l 221 576 l 221 1071 l 292 1071 b 617 525 493 1071 617 879 b 329 39 617 243 539 39 z "},"Ñ":{"ha":665,"x_min":0,"x_max":0,"o":"m 615 0 l 615 1110 l 554 1110 l 554 354 l 178 1110 l 50 1110 l 50 1 l 111 1 l 111 938 l 596 0 z m 511 1382 b 449 1313 508 1357 501 1313 b 244 1401 378 1313 342 1401 b 111 1256 167 1401 113 1344 l 150 1256 b 214 1326 156 1318 194 1326 b 415 1238 276 1326 319 1238 b 553 1382 492 1238 551 1296 z "},"Ò":{"ha":854,"x_min":0,"x_max":0,"o":"m 393 -22 b 814 575 694 -22 814 175 b 447 1121 814 999 679 1121 b 39 529 146 1121 39 915 b 393 -22 39 60 199 -22 z m 426 18 b 192 557 275 18 192 251 b 426 1079 192 872 281 1079 b 657 549 575 1079 657 865 b 426 18 657 229 572 18 z m 508 1207 l 379 1394 b 319 1429 363 1418 340 1429 b 261 1374 288 1429 261 1407 b 289 1322 261 1360 269 1339 l 472 1176 z "},"Ó":{"ha":854,"x_min":0,"x_max":0,"o":"m 393 -22 b 814 575 694 -22 814 175 b 447 1121 814 999 679 1121 b 39 529 146 1121 39 915 b 393 -22 39 60 199 -22 z m 426 18 b 192 557 275 18 192 251 b 426 1079 192 872 281 1079 b 657 549 575 1079 657 865 b 426 18 657 229 572 18 z m 563 1322 b 592 1374 585 1339 592 1360 b 532 1429 592 1407 564 1429 b 475 1394 513 1429 489 1418 l 344 1207 l 381 1176 z "},"Ô":{"ha":854,"x_min":0,"x_max":0,"o":"m 393 -22 b 814 575 694 -22 814 175 b 447 1121 814 999 679 1121 b 39 529 146 1121 39 915 b 393 -22 39 60 199 -22 z m 426 18 b 192 557 275 18 192 251 b 426 1079 192 872 281 1079 b 657 549 575 1079 657 865 b 426 18 657 229 572 18 z m 624 1207 l 486 1397 b 426 1429 468 1419 449 1429 b 368 1397 403 1429 383 1419 l 231 1207 l 267 1176 l 426 1317 l 588 1176 z "},"Õ":{"ha":854,"x_min":0,"x_max":0,"o":"m 393 -22 b 814 575 694 -22 814 175 b 447 1121 814 999 679 1121 b 39 529 146 1121 39 915 b 393 -22 39 60 199 -22 z m 426 18 b 192 557 275 18 192 251 b 426 1079 192 872 281 1079 b 657 549 575 1079 657 865 b 426 18 657 229 572 18 z m 606 1382 b 543 1313 603 1357 596 1313 b 339 1401 472 1313 436 1401 b 206 1256 261 1401 207 1344 l 244 1256 b 308 1326 250 1318 289 1326 b 510 1238 371 1326 414 1238 b 647 1382 586 1238 646 1296 z "},"Ö":{"ha":854,"x_min":0,"x_max":0,"o":"m 393 -22 b 814 575 694 -22 814 175 b 447 1121 814 999 679 1121 b 39 529 146 1121 39 915 b 393 -22 39 60 199 -22 z m 426 18 b 192 557 275 18 192 251 b 426 1079 192 872 281 1079 b 657 549 575 1079 657 865 b 426 18 657 229 572 18 z m 546 1214 b 629 1300 592 1214 629 1254 b 546 1385 629 1347 594 1385 b 461 1300 499 1385 461 1347 b 546 1214 461 1254 499 1214 z m 310 1214 b 393 1300 356 1214 393 1254 b 310 1385 393 1347 358 1385 b 225 1300 264 1385 225 1347 b 310 1214 225 1254 264 1214 z "},"×":{"ha":426,"x_min":0,"x_max":0,"o":"m 379 440 l 264 556 l 379 671 l 329 721 l 214 606 l 101 717 l 61 675 l 172 564 l 47 439 l 97 389 l 221 514 l 336 399 z "},"Ø":{"ha":854,"x_min":0,"x_max":0,"o":"m 125 -65 l 182 39 b 393 -22 240 -8 313 -22 b 814 575 694 -22 814 175 b 713 1013 814 792 779 929 l 814 1197 l 739 1197 l 663 1063 b 447 1121 606 1104 532 1121 b 39 529 146 1121 39 915 b 129 97 39 311 74 179 l 39 -65 z m 625 850 b 657 549 644 767 657 665 b 426 18 657 229 572 18 b 253 171 351 18 293 75 z m 222 265 b 192 557 201 349 192 449 b 426 1079 192 872 281 1079 b 593 939 499 1079 554 1028 z "},"Ù":{"ha":660,"x_min":0,"x_max":0,"o":"m 551 192 b 394 25 551 90 499 25 b 193 211 279 25 193 107 l 193 1110 l 47 1110 l 47 192 b 314 -22 47 39 129 -22 b 613 233 432 -22 613 3 l 613 1110 l 551 1110 z m 439 1207 l 310 1394 b 250 1429 293 1418 271 1429 b 192 1374 218 1429 192 1407 b 219 1322 192 1360 200 1339 l 403 1176 z "},"Ú":{"ha":660,"x_min":0,"x_max":0,"o":"m 551 192 b 394 25 551 90 499 25 b 193 211 279 25 193 107 l 193 1110 l 47 1110 l 47 192 b 314 -22 47 39 129 -22 b 613 233 432 -22 613 3 l 613 1110 l 551 1110 z m 493 1322 b 522 1374 515 1339 522 1360 b 463 1429 522 1407 494 1429 b 406 1394 443 1429 419 1418 l 275 1207 l 311 1176 z "},"Û":{"ha":660,"x_min":0,"x_max":0,"o":"m 551 192 b 394 25 551 90 499 25 b 193 211 279 25 193 107 l 193 1110 l 47 1110 l 47 192 b 314 -22 47 39 129 -22 b 613 233 432 -22 613 3 l 613 1110 l 551 1110 z m 554 1207 l 417 1397 b 357 1429 399 1419 379 1429 b 299 1397 333 1429 314 1419 l 161 1207 l 197 1176 l 357 1317 l 518 1176 z "},"Ü":{"ha":660,"x_min":0,"x_max":0,"o":"m 551 192 b 394 25 551 90 499 25 b 193 211 279 25 193 107 l 193 1110 l 47 1110 l 47 192 b 314 -22 47 39 129 -22 b 613 233 432 -22 613 3 l 613 1110 l 551 1110 z m 463 1214 b 546 1300 508 1214 546 1254 b 463 1385 546 1347 511 1385 b 378 1300 415 1385 378 1347 b 463 1214 378 1254 415 1214 z m 226 1214 b 310 1300 272 1214 310 1254 b 226 1385 310 1347 275 1385 b 142 1300 181 1385 142 1347 b 226 1214 142 1254 181 1214 z "},"Ý":{"ha":590,"x_min":0,"x_max":0,"o":"m 361 0 l 361 606 l 582 1110 l 515 1110 l 331 686 l 168 1110 l 11 1110 l 217 588 l 217 0 z m 431 1322 b 460 1374 453 1339 460 1360 b 400 1429 460 1407 432 1429 b 343 1394 381 1429 357 1418 l 213 1207 l 249 1176 z "},"Þ":{"ha":654,"x_min":0,"x_max":0,"o":"m 194 0 l 194 274 l 271 274 b 615 583 528 274 615 346 b 354 904 615 785 553 904 l 194 904 l 194 1110 l 50 1110 l 50 0 z m 194 313 l 194 864 l 271 864 b 469 574 458 864 469 732 b 297 313 469 443 463 313 z "},"ß":{"ha":654,"x_min":0,"x_max":0,"o":"m 271 -4 b 621 329 492 -4 621 122 b 471 579 621 474 556 546 b 579 844 531 629 579 717 b 306 1133 579 1008 500 1133 b 50 899 151 1133 50 1056 l 50 0 l 194 0 l 194 917 b 310 1092 194 1043 247 1092 b 451 844 400 1092 451 996 b 288 549 451 693 400 583 b 468 321 403 549 468 467 b 271 21 468 200 422 44 z "},"à":{"ha":639,"x_min":0,"x_max":0,"o":"m 444 183 b 290 21 422 97 367 21 b 169 226 207 21 169 107 b 275 431 169 335 200 396 b 444 525 368 475 404 493 z m 624 0 b 589 114 599 31 589 65 l 589 694 b 343 901 589 806 518 901 b 82 783 229 901 140 861 l 126 761 b 290 849 174 821 215 849 b 444 674 404 849 444 785 l 444 571 b 247 468 396 528 379 521 b 25 199 125 419 25 356 b 250 -22 25 75 89 -22 b 443 85 369 -22 415 29 b 474 0 443 61 454 26 z m 401 979 l 272 1208 b 214 1243 260 1231 240 1243 b 154 1189 178 1243 154 1218 b 182 1136 154 1172 164 1154 l 365 949 z "},"á":{"ha":639,"x_min":0,"x_max":0,"o":"m 444 183 b 290 21 422 97 367 21 b 169 226 207 21 169 107 b 275 431 169 335 200 396 b 444 525 368 475 404 493 z m 624 0 b 589 114 599 31 589 65 l 589 694 b 343 901 589 806 518 901 b 82 783 229 901 140 861 l 126 761 b 290 849 174 821 215 849 b 444 674 404 849 444 785 l 444 571 b 247 468 396 528 379 521 b 25 199 125 419 25 356 b 250 -22 25 75 89 -22 b 443 85 369 -22 415 29 b 474 0 443 61 454 26 z m 274 949 l 457 1136 b 485 1189 475 1154 485 1172 b 425 1243 485 1218 461 1243 b 367 1208 399 1243 379 1231 l 238 979 z "},"â":{"ha":639,"x_min":0,"x_max":0,"o":"m 444 183 b 290 21 422 97 367 21 b 169 226 207 21 169 107 b 275 431 169 335 200 396 b 444 525 368 475 404 493 z m 624 0 b 589 114 599 31 589 65 l 589 694 b 343 901 589 806 518 901 b 82 783 229 901 140 861 l 126 761 b 290 849 174 821 215 849 b 444 674 404 849 444 785 l 444 571 b 247 468 396 528 379 521 b 25 199 125 419 25 356 b 250 -22 25 75 89 -22 b 443 85 369 -22 415 29 b 474 0 443 61 454 26 z m 515 979 l 378 1169 b 318 1201 360 1192 340 1201 b 260 1169 294 1201 275 1192 l 122 979 l 158 949 l 318 1089 l 479 949 z "},"ã":{"ha":639,"x_min":0,"x_max":0,"o":"m 444 183 b 290 21 422 97 367 21 b 169 226 207 21 169 107 b 275 431 169 335 200 396 b 444 525 368 475 404 493 z m 624 0 b 589 114 599 31 589 65 l 589 694 b 343 901 589 806 518 901 b 82 783 229 901 140 861 l 126 761 b 290 849 174 821 215 849 b 444 674 404 849 444 785 l 444 571 b 247 468 396 528 379 521 b 25 199 125 419 25 356 b 250 -22 25 75 89 -22 b 443 85 369 -22 415 29 b 474 0 443 61 454 26 z m 499 1154 b 436 1085 496 1129 489 1085 b 232 1174 365 1085 329 1174 b 99 1028 154 1174 100 1117 l 138 1028 b 201 1099 143 1090 182 1099 b 403 1010 264 1099 307 1010 b 540 1154 479 1010 539 1068 z "},"ä":{"ha":639,"x_min":0,"x_max":0,"o":"m 444 183 b 290 21 422 97 367 21 b 169 226 207 21 169 107 b 275 431 169 335 200 396 b 444 525 368 475 404 493 z m 624 0 b 589 114 599 31 589 65 l 589 694 b 343 901 589 806 518 901 b 82 783 229 901 140 861 l 126 761 b 290 849 174 821 215 849 b 444 674 404 849 444 785 l 444 571 b 247 468 396 528 379 521 b 25 199 125 419 25 356 b 250 -22 25 75 89 -22 b 443 85 369 -22 415 29 b 474 0 443 61 454 26 z m 438 986 b 521 1072 483 986 521 1026 b 438 1157 521 1119 486 1157 b 353 1072 390 1157 353 1119 b 438 986 353 1026 390 986 z m 201 986 b 285 1072 247 986 285 1026 b 201 1157 285 1119 250 1157 b 117 1072 156 1157 117 1119 b 201 986 117 1026 156 986 z "},"å":{"ha":639,"x_min":0,"x_max":0,"o":"m 444 183 b 290 21 422 97 367 21 b 169 226 207 21 169 107 b 275 431 169 335 200 396 b 444 525 368 475 404 493 z m 624 0 b 589 114 599 31 589 65 l 589 694 b 343 901 589 806 518 901 b 82 783 229 901 140 861 l 126 761 b 290 849 174 821 215 849 b 444 674 404 849 444 785 l 444 571 b 247 468 396 528 379 521 b 25 199 125 419 25 356 b 250 -22 25 75 89 -22 b 443 85 369 -22 415 29 b 474 0 443 61 454 26 z m 319 1001 b 258 1101 278 1001 258 1047 b 319 1200 258 1156 278 1200 b 381 1101 363 1200 381 1156 b 319 1001 381 1047 363 1001 z m 319 958 b 446 1101 385 958 446 1019 b 319 1243 446 1182 385 1243 b 193 1101 254 1243 193 1182 b 319 958 193 1019 254 958 z "},"æ":{"ha":1096,"x_min":0,"x_max":0,"o":"m 956 149 b 800 25 904 61 858 25 b 588 436 656 25 588 240 l 588 497 l 1069 497 b 788 901 1069 717 979 901 b 551 790 696 901 615 861 b 343 901 526 856 465 901 b 82 783 229 901 140 861 l 126 761 b 290 849 174 821 215 849 b 468 642 413 849 460 747 b 447 574 460 621 453 596 b 247 468 396 528 379 521 b 25 199 125 419 25 356 b 250 -22 25 75 89 -22 b 443 85 369 -22 411 32 b 479 167 460 110 471 139 b 750 -22 532 53 625 -22 b 990 135 872 -22 933 44 z m 456 233 b 417 111 447 190 436 149 b 290 21 388 58 346 21 b 169 226 207 21 169 107 b 275 431 169 335 200 396 b 436 518 361 472 401 493 b 429 418 432 486 429 453 b 456 233 429 351 438 290 z m 594 551 b 779 854 614 710 663 854 b 953 551 907 854 953 683 z "},"ç":{"ha":624,"x_min":0,"x_max":0,"o":"m 272 -237 b 483 -129 429 -237 483 -186 b 381 -44 483 -71 431 -47 l 388 -21 b 603 135 506 -15 553 50 l 571 149 b 411 25 521 61 472 25 b 190 468 271 25 190 197 b 400 861 190 692 246 861 b 542 756 478 861 515 817 l 586 774 b 386 901 547 857 500 901 b 39 443 176 901 39 744 b 347 -21 39 178 146 -8 l 329 -69 b 394 -131 363 -69 394 -86 b 272 -197 394 -178 356 -197 z "},"è":{"ha":706,"x_min":0,"x_max":0,"o":"m 565 149 b 410 25 513 61 468 25 b 196 436 264 25 196 240 b 197 497 196 461 196 486 l 678 497 b 396 901 678 717 588 901 b 39 418 194 901 39 701 b 361 -22 39 175 154 -22 b 599 135 481 -22 543 44 z m 204 551 b 388 854 224 710 271 854 b 561 551 515 854 561 683 z m 463 979 l 333 1208 b 275 1243 321 1231 301 1243 b 215 1189 239 1243 215 1218 b 243 1136 215 1172 225 1154 l 426 949 z "},"é":{"ha":706,"x_min":0,"x_max":0,"o":"m 565 149 b 410 25 513 61 468 25 b 196 436 264 25 196 240 b 197 497 196 461 196 486 l 678 497 b 396 901 678 717 588 901 b 39 418 194 901 39 701 b 361 -22 39 175 154 -22 b 599 135 481 -22 543 44 z m 204 551 b 388 854 224 710 271 854 b 561 551 515 854 561 683 z m 335 949 l 518 1136 b 546 1189 536 1154 546 1172 b 486 1243 546 1218 522 1243 b 428 1208 460 1243 440 1231 l 299 979 z "},"ê":{"ha":706,"x_min":0,"x_max":0,"o":"m 565 149 b 410 25 513 61 468 25 b 196 436 264 25 196 240 b 197 497 196 461 196 486 l 678 497 b 396 901 678 717 588 901 b 39 418 194 901 39 701 b 361 -22 39 175 154 -22 b 599 135 481 -22 543 44 z m 204 551 b 388 854 224 710 271 854 b 561 551 515 854 561 683 z m 576 979 l 439 1169 b 379 1201 421 1192 401 1201 b 321 1169 356 1201 336 1192 l 183 979 l 219 949 l 379 1089 l 540 949 z "},"ë":{"ha":706,"x_min":0,"x_max":0,"o":"m 565 149 b 410 25 513 61 468 25 b 196 436 264 25 196 240 b 197 497 196 461 196 486 l 678 497 b 396 901 678 717 588 901 b 39 418 194 901 39 701 b 361 -22 39 175 154 -22 b 599 135 481 -22 543 44 z m 204 551 b 388 854 224 710 271 854 b 561 551 515 854 561 683 z m 499 986 b 582 1072 544 986 582 1026 b 499 1157 582 1119 547 1157 b 414 1072 451 1157 414 1119 b 499 986 414 1026 451 986 z m 263 986 b 346 1072 308 986 346 1026 b 263 1157 346 1119 311 1157 b 178 1072 217 1157 178 1119 b 263 986 178 1026 217 986 z "},"ì":{"ha":246,"x_min":0,"x_max":0,"o":"m 194 1 l 194 890 l 50 846 l 50 1 z m 204 979 l 75 1208 b 17 1243 63 1231 43 1243 b -43 1189 -19 1243 -43 1218 b -15 1136 -43 1172 -33 1154 l 168 949 z "},"í":{"ha":246,"x_min":0,"x_max":0,"o":"m 194 1 l 194 890 l 50 846 l 50 1 z m 76 949 l 260 1136 b 288 1189 278 1154 288 1172 b 228 1243 288 1218 264 1243 b 169 1208 201 1243 182 1231 l 40 979 z "},"î":{"ha":322,"x_min":0,"x_max":0,"o":"m 235 1 l 235 890 l 90 846 l 90 1 z m 360 979 l 222 1169 b 163 1201 204 1192 185 1201 b 104 1169 139 1201 119 1192 l -33 979 l 3 949 l 163 1089 l 324 949 z "},"ï":{"ha":344,"x_min":0,"x_max":0,"o":"m 244 1 l 244 890 l 100 846 l 100 1 z m 292 986 b 375 1072 338 986 375 1026 b 292 1157 375 1119 340 1157 b 207 1072 244 1157 207 1119 b 292 986 207 1026 244 986 z m 56 986 b 139 1072 101 986 139 1026 b 56 1157 139 1119 104 1157 b -29 1072 10 1157 -29 1119 b 56 986 -29 1026 10 986 z "},"ð":{"ha":639,"x_min":0,"x_max":0,"o":"m 575 1008 l 538 1051 l 424 958 b 158 1121 357 1031 269 1088 l 150 1081 b 368 914 240 1056 313 994 l 249 814 l 283 769 l 397 863 b 468 626 433 786 451 744 b 306 708 426 675 376 708 b 31 339 181 708 31 607 b 319 -18 31 108 140 -18 b 611 404 508 -18 611 124 b 461 915 611 588 568 774 z m 472 547 b 482 439 481 508 482 476 b 314 22 482 160 414 22 b 165 374 197 22 165 221 b 310 658 165 579 224 658 b 472 547 375 658 426 613 z "},"ñ":{"ha":663,"x_min":0,"x_max":0,"o":"m 615 0 l 615 669 b 393 901 615 804 528 901 b 194 764 267 901 215 815 l 194 890 l 50 846 l 50 0 l 194 0 l 194 669 b 336 831 215 765 260 831 b 471 649 415 831 471 761 l 471 0 z m 510 1154 b 447 1085 507 1129 500 1085 b 243 1174 376 1085 340 1174 b 110 1028 165 1174 111 1117 l 149 1028 b 213 1099 154 1090 193 1099 b 414 1010 275 1099 318 1010 b 551 1154 490 1010 550 1068 z "},"ò":{"ha":724,"x_min":0,"x_max":0,"o":"m 346 -22 b 685 461 550 -22 685 107 b 375 901 685 754 590 901 b 39 417 121 901 39 699 b 346 -22 39 128 125 -22 z m 383 22 b 185 482 250 22 185 178 b 335 851 185 751 236 851 b 547 378 457 851 547 697 b 383 22 547 111 483 22 z m 443 979 l 314 1208 b 256 1243 301 1231 282 1243 b 196 1189 219 1243 196 1218 b 224 1136 196 1172 206 1154 l 407 949 z "},"ó":{"ha":724,"x_min":0,"x_max":0,"o":"m 346 -22 b 685 461 550 -22 685 107 b 375 901 685 754 590 901 b 39 417 121 901 39 699 b 346 -22 39 128 125 -22 z m 383 22 b 185 482 250 22 185 178 b 335 851 185 751 236 851 b 547 378 457 851 547 697 b 383 22 547 111 483 22 z m 315 949 l 499 1136 b 526 1189 517 1154 526 1172 b 467 1243 526 1218 503 1243 b 408 1208 440 1243 421 1231 l 279 979 z "},"ô":{"ha":724,"x_min":0,"x_max":0,"o":"m 346 -22 b 685 461 550 -22 685 107 b 375 901 685 754 590 901 b 39 417 121 901 39 699 b 346 -22 39 128 125 -22 z m 383 22 b 185 482 250 22 185 178 b 335 851 185 751 236 851 b 547 378 457 851 547 697 b 383 22 547 111 483 22 z m 558 979 l 421 1169 b 361 1201 403 1192 383 1201 b 303 1169 338 1201 318 1192 l 165 979 l 201 949 l 361 1089 l 522 949 z "},"õ":{"ha":724,"x_min":0,"x_max":0,"o":"m 346 -22 b 685 461 550 -22 685 107 b 375 901 685 754 590 901 b 39 417 121 901 39 699 b 346 -22 39 128 125 -22 z m 383 22 b 185 482 250 22 185 178 b 335 851 185 751 236 851 b 547 378 457 851 547 697 b 383 22 547 111 483 22 z m 540 1154 b 478 1085 538 1129 531 1085 b 274 1174 407 1085 371 1174 b 140 1028 196 1174 142 1117 l 179 1028 b 243 1099 185 1090 224 1099 b 444 1010 306 1099 349 1010 b 582 1154 521 1010 581 1068 z "},"ö":{"ha":724,"x_min":0,"x_max":0,"o":"m 346 -22 b 685 461 550 -22 685 107 b 375 901 685 754 590 901 b 39 417 121 901 39 699 b 346 -22 39 128 125 -22 z m 383 22 b 185 482 250 22 185 178 b 335 851 185 751 236 851 b 547 378 457 851 547 697 b 383 22 547 111 483 22 z m 481 986 b 564 1072 526 986 564 1026 b 481 1157 564 1119 529 1157 b 396 1072 433 1157 396 1119 b 481 986 396 1026 433 986 z m 244 986 b 328 1072 290 986 328 1026 b 244 1157 328 1119 293 1157 b 160 1072 199 1157 160 1119 b 244 986 160 1026 199 986 z "},"÷":{"ha":426,"x_min":0,"x_max":0,"o":"m 410 531 l 410 589 l 19 589 l 19 531 z m 218 700 b 303 786 264 700 303 739 b 218 871 303 832 264 871 b 135 786 169 871 135 832 b 218 700 135 739 169 700 z m 218 251 b 303 336 264 251 303 290 b 218 421 303 385 264 421 b 135 336 169 421 135 385 b 218 251 135 290 169 251 z "},"ø":{"ha":724,"x_min":0,"x_max":0,"o":"m 125 -65 l 174 22 b 346 -22 218 -7 274 -22 b 685 460 550 -22 685 108 b 603 801 685 614 658 728 l 685 949 l 608 949 l 553 850 b 375 901 507 883 449 901 b 39 417 121 901 39 699 b 118 75 39 263 63 147 l 39 -65 z m 518 644 b 547 378 536 575 547 485 b 383 22 547 111 483 22 b 235 135 317 22 267 60 z m 206 231 b 185 479 192 300 185 383 b 335 851 185 751 236 851 b 486 732 396 851 449 811 z "},"ù":{"ha":663,"x_min":0,"x_max":0,"o":"m 613 0 l 613 890 l 468 844 l 468 219 b 308 29 453 142 410 29 b 192 219 235 29 192 92 l 192 890 l 47 844 l 47 200 b 275 -22 47 65 131 -22 b 468 103 375 -22 431 29 l 497 0 z m 413 979 l 283 1208 b 225 1243 271 1231 251 1243 b 165 1189 189 1243 165 1218 b 193 1136 165 1172 175 1154 l 376 949 z "},"ú":{"ha":663,"x_min":0,"x_max":0,"o":"m 613 0 l 613 890 l 468 844 l 468 219 b 308 29 453 142 410 29 b 192 219 235 29 192 92 l 192 890 l 47 844 l 47 200 b 275 -22 47 65 131 -22 b 468 103 375 -22 431 29 l 497 0 z m 285 949 l 468 1136 b 496 1189 486 1154 496 1172 b 436 1243 496 1218 472 1243 b 378 1208 410 1243 390 1231 l 249 979 z "},"û":{"ha":663,"x_min":0,"x_max":0,"o":"m 613 0 l 613 890 l 468 844 l 468 219 b 308 29 453 142 410 29 b 192 219 235 29 192 92 l 192 890 l 47 844 l 47 200 b 275 -22 47 65 131 -22 b 468 103 375 -22 431 29 l 497 0 z m 528 979 l 390 1169 b 331 1201 372 1192 353 1201 b 272 1169 307 1201 288 1192 l 135 979 l 171 949 l 331 1089 l 492 949 z "},"ü":{"ha":663,"x_min":0,"x_max":0,"o":"m 613 0 l 613 890 l 468 844 l 468 219 b 308 29 453 142 410 29 b 192 219 235 29 192 92 l 192 890 l 47 844 l 47 200 b 275 -22 47 65 131 -22 b 468 103 375 -22 431 29 l 497 0 z m 450 986 b 533 1072 496 986 533 1026 b 450 1157 533 1119 499 1157 b 365 1072 403 1157 365 1119 b 450 986 365 1026 403 986 z m 214 986 b 297 1072 260 986 297 1026 b 214 1157 297 1119 263 1157 b 129 1072 168 1157 129 1119 b 214 986 129 1026 168 986 z "},"ý":{"ha":597,"x_min":0,"x_max":0,"o":"m 225 -60 b 28 -189 197 -139 110 -189 l 28 -237 b 294 -46 154 -237 256 -167 l 588 882 l 539 882 l 342 274 l 165 882 l 11 882 l 272 75 z m 253 949 l 436 1136 b 464 1189 454 1154 464 1172 b 404 1243 464 1218 440 1243 b 346 1208 378 1243 358 1231 l 217 979 z "},"þ":{"ha":696,"x_min":0,"x_max":0,"o":"m 194 -237 l 194 101 b 367 -22 217 25 279 -22 b 657 468 546 -22 657 175 b 397 901 657 732 565 901 b 194 749 306 901 231 851 l 194 1133 l 50 1088 l 50 -237 z m 194 667 b 351 832 219 768 276 832 b 508 435 481 832 508 639 b 361 14 508 171 464 14 b 194 207 288 14 219 101 z "},"ÿ":{"ha":597,"x_min":0,"x_max":0,"o":"m 225 -60 b 28 -189 197 -139 110 -189 l 28 -237 b 294 -46 154 -237 256 -167 l 588 882 l 539 882 l 342 274 l 165 882 l 11 882 l 272 75 z m 417 986 b 500 1072 463 986 500 1026 b 417 1157 500 1119 465 1157 b 332 1072 369 1157 332 1119 b 417 986 332 1026 369 986 z m 181 986 b 264 1072 226 986 264 1026 b 181 1157 264 1119 229 1157 b 96 1072 135 1157 96 1119 b 181 986 96 1026 135 986 z "},"Ā":{"ha":586,"x_min":0,"x_max":0,"o":"m 576 0 l 364 1110 l 219 1110 l 11 0 l 64 0 l 111 251 l 385 251 l 431 0 z m 378 292 l 118 292 l 250 985 z m 496 1301 l 496 1353 l 89 1353 l 89 1301 z "},"ā":{"ha":639,"x_min":0,"x_max":0,"o":"m 444 183 b 290 21 422 97 367 21 b 169 226 207 21 169 107 b 275 431 169 335 200 396 b 444 525 368 475 404 493 z m 624 0 b 589 114 599 31 589 65 l 589 694 b 343 901 589 806 518 901 b 82 783 229 901 140 861 l 126 761 b 290 849 174 821 215 849 b 444 674 404 849 444 785 l 444 571 b 247 468 396 528 379 521 b 25 199 125 419 25 356 b 250 -22 25 75 89 -22 b 443 85 369 -22 415 29 b 474 0 443 61 454 26 z m 522 1074 l 522 1125 l 115 1125 l 115 1074 z "},"Ă":{"ha":586,"x_min":0,"x_max":0,"o":"m 576 0 l 364 1110 l 219 1110 l 11 0 l 64 0 l 111 251 l 385 251 l 431 0 z m 378 292 l 118 292 l 250 985 z m 444 1419 b 292 1254 431 1300 368 1254 b 139 1419 217 1254 153 1300 l 96 1415 b 292 1176 96 1269 183 1176 b 489 1415 399 1176 489 1269 z "},"ă":{"ha":639,"x_min":0,"x_max":0,"o":"m 444 183 b 290 21 422 97 367 21 b 169 226 207 21 169 107 b 275 431 169 335 200 396 b 444 525 368 475 404 493 z m 624 0 b 589 114 599 31 589 65 l 589 694 b 343 901 589 806 518 901 b 82 783 229 901 140 861 l 126 761 b 290 849 174 821 215 849 b 444 674 404 849 444 785 l 444 571 b 247 468 396 528 379 521 b 25 199 125 419 25 356 b 250 -22 25 75 89 -22 b 443 85 369 -22 415 29 b 474 0 443 61 454 26 z m 471 1192 b 318 1026 457 1072 394 1026 b 165 1192 243 1026 179 1072 l 122 1188 b 318 949 122 1042 210 949 b 515 1188 425 949 515 1042 z "},"Ą":{"ha":586,"x_min":0,"x_max":0,"o":"m 572 -161 b 478 -193 551 -179 529 -193 b 396 -140 411 -193 396 -169 b 432 -69 396 -118 404 -94 b 576 0 457 -47 496 -24 l 364 1110 l 219 1110 l 11 0 l 64 0 l 111 251 l 385 251 l 433 -18 b 272 -143 313 -56 272 -99 b 440 -237 272 -181 299 -237 b 586 -193 514 -237 556 -222 z m 378 292 l 118 292 l 250 985 z "},"ą":{"ha":639,"x_min":0,"x_max":0,"o":"m 625 -161 b 531 -193 604 -179 582 -193 b 449 -137 463 -193 449 -169 b 624 0 449 -110 458 -53 b 589 114 599 31 589 65 l 589 694 b 343 901 589 806 518 901 b 82 783 229 901 140 861 l 126 761 b 290 849 174 821 215 849 b 444 674 404 849 444 785 l 444 571 b 247 468 397 529 386 524 b 25 199 131 421 25 360 b 251 -22 25 74 89 -22 b 443 85 369 -22 415 29 b 485 -18 444 47 463 10 b 325 -143 365 -56 325 -99 b 493 -237 325 -181 351 -237 b 639 -193 567 -237 608 -222 z m 444 183 b 290 21 422 97 367 21 b 169 226 207 21 169 107 b 275 431 169 335 200 394 b 444 525 371 476 404 493 z "},"Ć":{"ha":721,"x_min":0,"x_max":0,"o":"m 638 168 b 422 21 603 82 501 21 b 190 565 274 21 190 247 b 442 1082 190 881 272 1082 b 647 932 538 1082 613 1017 l 706 947 b 431 1121 633 1081 558 1121 b 39 529 153 1121 39 928 b 374 -22 39 132 153 -22 b 694 168 510 -22 628 36 z m 551 1322 b 581 1374 574 1339 581 1360 b 521 1429 581 1407 553 1429 b 464 1394 501 1429 478 1418 l 333 1207 l 369 1176 z "},"ć":{"ha":624,"x_min":0,"x_max":0,"o":"m 571 149 b 411 25 521 61 472 25 b 190 468 271 25 190 197 b 400 861 190 692 246 861 b 542 756 478 861 515 817 l 586 774 b 386 901 547 857 500 901 b 39 443 176 901 39 744 b 371 -22 39 168 154 -22 b 603 135 501 -22 550 46 z m 321 949 l 504 1136 b 532 1189 522 1154 532 1172 b 472 1243 532 1218 508 1243 b 414 1208 446 1243 426 1231 l 285 979 z "},"Ċ":{"ha":721,"x_min":0,"x_max":0,"o":"m 638 168 b 422 21 603 82 501 21 b 190 565 274 21 190 247 b 442 1082 190 881 272 1082 b 647 932 538 1082 613 1017 l 706 947 b 431 1121 633 1081 558 1121 b 39 529 153 1121 39 928 b 374 -22 39 132 153 -22 b 694 168 510 -22 628 36 z m 417 1214 b 500 1300 463 1214 500 1254 b 417 1385 500 1347 465 1385 b 332 1300 371 1385 332 1347 b 417 1214 332 1254 371 1214 z "},"ċ":{"ha":624,"x_min":0,"x_max":0,"o":"m 571 149 b 411 25 521 61 472 25 b 190 468 271 25 190 197 b 400 861 190 692 246 861 b 542 756 478 861 515 817 l 586 774 b 386 901 547 857 500 901 b 39 443 176 901 39 744 b 371 -22 39 168 154 -22 b 603 135 501 -22 550 46 z m 368 986 b 451 1072 414 986 451 1026 b 368 1157 451 1119 417 1157 b 283 1072 322 1157 283 1119 b 368 986 283 1026 322 986 z "},"Č":{"ha":721,"x_min":0,"x_max":0,"o":"m 638 168 b 422 21 603 82 501 21 b 190 565 274 21 190 247 b 442 1082 190 881 272 1082 b 647 932 538 1082 613 1017 l 706 947 b 431 1121 633 1081 558 1121 b 39 529 153 1121 39 928 b 374 -22 39 132 153 -22 b 694 168 510 -22 628 36 z m 613 1400 l 576 1429 l 415 1290 l 256 1429 l 219 1400 l 357 1210 b 417 1176 375 1188 394 1176 b 475 1210 440 1176 460 1188 z "},"č":{"ha":624,"x_min":0,"x_max":0,"o":"m 571 149 b 411 25 521 61 472 25 b 190 468 271 25 190 197 b 400 861 190 692 246 861 b 542 756 478 861 515 817 l 586 774 b 386 901 547 857 500 901 b 39 443 176 901 39 744 b 371 -22 39 168 154 -22 b 603 135 501 -22 550 46 z m 564 1172 l 528 1201 l 367 1063 l 207 1201 l 171 1172 l 308 982 b 368 949 326 960 346 949 b 426 982 392 949 411 960 z "},"Ď":{"ha":775,"x_min":0,"x_max":0,"o":"m 257 0 b 736 526 601 0 736 139 b 365 1110 736 792 672 1110 l 50 1110 l 50 0 z m 194 39 l 194 1071 l 264 1071 b 589 525 468 1071 589 879 b 304 39 589 243 513 39 z m 542 1400 l 506 1429 l 344 1290 l 185 1429 l 149 1400 l 286 1210 b 346 1176 304 1188 324 1176 b 404 1210 369 1176 389 1188 z "},"ď":{"ha":871,"x_min":0,"x_max":0,"o":"m 633 0 l 633 1133 l 488 1088 l 488 757 b 296 901 453 860 379 901 b 39 472 122 901 39 721 b 307 -22 39 222 125 -22 b 488 103 394 -22 456 31 l 518 0 z m 488 222 b 353 29 478 151 424 29 b 182 514 264 29 182 219 b 328 850 182 750 233 850 b 488 653 422 850 460 749 z m 760 861 b 883 1043 824 885 883 974 b 803 1133 883 1097 849 1133 b 715 1063 767 1133 728 1113 b 794 976 774 1063 794 1035 b 760 861 794 933 783 894 z "},"đ":{"ha":683,"x_min":0,"x_max":0,"o":"m 633 0 l 633 963 l 683 963 l 683 1014 l 633 1014 l 633 1133 l 488 1088 l 488 1014 l 276 1014 l 276 963 l 488 963 l 488 757 b 296 901 453 860 379 901 b 39 472 122 901 39 721 b 307 -22 39 222 125 -22 b 488 103 394 -22 456 31 l 518 0 z m 488 222 b 353 29 478 151 424 29 b 182 514 264 29 182 219 b 328 850 182 750 233 850 b 488 653 422 850 460 749 z "},"₫":{"ha":683,"x_min":0,"x_max":0,"o":"m 633 0 l 633 963 l 683 963 l 683 1014 l 633 1014 l 633 1133 l 488 1088 l 488 1014 l 276 1014 l 276 963 l 488 963 l 488 757 b 296 901 453 860 379 901 b 39 472 122 901 39 721 b 307 -22 39 222 125 -22 b 488 103 394 -22 456 31 l 518 0 z m 488 222 b 353 29 478 151 424 29 b 182 514 264 29 182 219 b 328 850 182 750 233 850 b 488 653 422 850 460 749 z "},"Ē":{"ha":632,"x_min":0,"x_max":0,"o":"m 606 0 l 606 39 l 194 39 l 194 536 l 432 536 l 432 576 l 194 576 l 194 1071 l 606 1071 l 606 1110 l 50 1110 l 50 0 z m 547 1301 l 547 1353 l 140 1353 l 140 1301 z "},"ē":{"ha":706,"x_min":0,"x_max":0,"o":"m 565 149 b 410 25 513 61 468 25 b 196 436 264 25 196 240 b 197 497 196 461 196 486 l 678 497 b 396 901 678 717 588 901 b 39 418 194 901 39 701 b 361 -22 39 175 154 -22 b 599 135 481 -22 543 44 z m 204 551 b 388 854 224 710 271 854 b 561 551 515 854 561 683 z m 583 1074 l 583 1125 l 176 1125 l 176 1074 z "},"Ė":{"ha":632,"x_min":0,"x_max":0,"o":"m 606 0 l 606 39 l 194 39 l 194 536 l 432 536 l 432 576 l 194 576 l 194 1071 l 606 1071 l 606 1110 l 50 1110 l 50 0 z m 344 1214 b 428 1300 390 1214 428 1254 b 344 1385 428 1347 393 1385 b 260 1300 299 1385 260 1347 b 344 1214 260 1254 299 1214 z "},"ė":{"ha":706,"x_min":0,"x_max":0,"o":"m 565 149 b 410 25 513 61 468 25 b 196 436 264 25 196 240 b 197 497 196 461 196 486 l 678 497 b 396 901 678 717 588 901 b 39 418 194 901 39 701 b 361 -22 39 175 154 -22 b 599 135 481 -22 543 44 z m 204 551 b 388 854 224 710 271 854 b 561 551 515 854 561 683 z m 381 986 b 464 1072 426 986 464 1026 b 381 1157 464 1119 429 1157 b 296 1072 335 1157 296 1119 b 381 986 296 1026 335 986 z "},"Ę":{"ha":632,"x_min":0,"x_max":0,"o":"m 618 -161 b 524 -193 597 -179 575 -193 b 442 -140 457 -193 442 -169 b 606 0 442 -100 471 -51 l 606 39 l 194 39 l 194 536 l 432 536 l 432 576 l 194 576 l 194 1071 l 606 1071 l 606 1110 l 50 1110 l 50 0 l 544 0 b 318 -143 374 -42 318 -92 b 486 -237 318 -181 344 -237 b 632 -193 560 -237 601 -222 z "},"ę":{"ha":706,"x_min":0,"x_max":0,"o":"m 481 -161 b 386 -193 460 -179 438 -193 b 304 -140 319 -193 304 -169 b 360 -53 304 -114 315 -85 b 517 33 413 -15 471 -4 b 599 135 546 58 574 94 l 565 149 b 410 25 513 61 468 25 b 196 436 264 25 196 240 b 197 497 196 461 196 486 l 678 497 b 396 901 678 717 588 901 b 39 418 194 901 39 701 b 332 -21 39 186 143 -3 b 181 -144 219 -57 181 -100 b 349 -237 181 -181 207 -237 b 494 -193 422 -237 464 -222 z m 204 551 b 388 854 224 710 271 854 b 561 551 515 854 561 683 z "},"Ě":{"ha":632,"x_min":0,"x_max":0,"o":"m 606 0 l 606 39 l 194 39 l 194 536 l 432 536 l 432 576 l 194 576 l 194 1071 l 606 1071 l 606 1110 l 50 1110 l 50 0 z m 540 1400 l 504 1429 l 343 1290 l 183 1429 l 147 1400 l 285 1210 b 344 1176 303 1188 322 1176 b 403 1210 368 1176 388 1188 z "},"ě":{"ha":706,"x_min":0,"x_max":0,"o":"m 565 149 b 410 25 513 61 468 25 b 196 436 264 25 196 240 b 197 497 196 461 196 486 l 678 497 b 396 901 678 717 588 901 b 39 418 194 901 39 701 b 361 -22 39 175 154 -22 b 599 135 481 -22 543 44 z m 204 551 b 388 854 224 710 271 854 b 561 551 515 854 561 683 z m 576 1172 l 540 1201 l 379 1063 l 219 1201 l 183 1172 l 321 982 b 381 949 339 960 358 949 b 439 982 404 949 424 960 z "},"Ğ":{"ha":731,"x_min":0,"x_max":0,"o":"m 725 13 b 682 201 700 58 682 136 l 682 422 l 465 422 l 465 383 b 557 303 546 379 557 378 b 397 21 557 118 488 21 b 190 547 264 21 190 226 b 435 1082 190 882 271 1082 b 633 932 525 1082 600 1025 l 690 947 b 417 1121 629 1064 564 1121 b 39 519 144 1121 39 925 b 351 -22 39 92 157 -22 b 626 144 521 -22 588 65 b 678 -15 626 99 656 21 z m 558 1419 b 406 1254 544 1300 482 1254 b 253 1419 331 1254 267 1300 l 210 1415 b 406 1176 210 1269 297 1176 b 603 1415 513 1176 603 1269 z "},"ğ":{"ha":765,"x_min":0,"x_max":0,"o":"m 643 -128 b 346 -190 521 -169 424 -190 b 138 -54 193 -190 138 -111 b 403 124 138 31 263 97 b 240 194 293 142 240 168 b 261 224 240 203 247 213 b 361 211 290 217 317 211 b 692 551 568 211 692 324 b 658 732 692 619 681 678 b 765 860 726 732 750 758 b 663 796 739 817 703 796 b 613 806 647 796 632 799 b 399 901 560 865 497 901 b 56 550 189 901 56 738 b 210 246 56 438 104 306 b 103 183 136 226 103 206 b 239 115 103 157 149 136 b 0 -83 99 90 0 15 b 288 -237 0 -183 101 -237 b 658 -158 422 -237 542 -210 z m 417 254 b 186 607 292 254 186 382 b 336 849 186 765 239 849 b 563 479 478 849 563 672 b 417 254 563 328 510 254 z m 535 1192 b 382 1026 521 1072 458 1026 b 229 1192 307 1026 243 1072 l 186 1188 b 382 949 186 1042 274 949 b 579 1188 489 949 579 1042 z "},"Ġ":{"ha":731,"x_min":0,"x_max":0,"o":"m 725 13 b 682 201 700 58 682 136 l 682 422 l 465 422 l 465 383 b 557 303 546 379 557 378 b 397 21 557 118 488 21 b 190 547 264 21 190 226 b 435 1082 190 882 271 1082 b 633 932 525 1082 600 1025 l 690 947 b 417 1121 629 1064 564 1121 b 39 519 144 1121 39 925 b 351 -22 39 92 157 -22 b 626 144 521 -22 588 65 b 678 -15 626 99 656 21 z m 407 1214 b 490 1300 453 1214 490 1254 b 407 1385 490 1347 456 1385 b 322 1300 361 1385 322 1347 b 407 1214 322 1254 361 1214 z "},"ġ":{"ha":765,"x_min":0,"x_max":0,"o":"m 643 -128 b 346 -190 521 -169 424 -190 b 138 -54 193 -190 138 -111 b 403 124 138 31 263 97 b 240 194 293 142 240 168 b 261 224 240 203 247 213 b 361 211 290 217 317 211 b 692 551 568 211 692 324 b 658 732 692 619 681 678 b 765 860 726 732 750 758 b 663 796 739 817 703 796 b 613 806 647 796 632 799 b 399 901 560 865 497 901 b 56 550 189 901 56 738 b 210 246 56 438 104 306 b 103 183 136 226 103 206 b 239 115 103 157 149 136 b 0 -83 99 90 0 15 b 288 -237 0 -183 101 -237 b 658 -158 422 -237 542 -210 z m 417 254 b 186 607 292 254 186 382 b 336 849 186 765 239 849 b 563 479 478 849 563 672 b 417 254 563 328 510 254 z m 383 986 b 467 1072 429 986 467 1026 b 383 1157 467 1119 432 1157 b 299 1072 338 1157 299 1119 b 383 986 299 1026 338 986 z "},"Ģ":{"ha":731,"x_min":0,"x_max":0,"o":"m 725 13 b 682 201 700 58 682 136 l 682 422 l 465 422 l 465 383 b 557 303 546 379 557 378 b 397 21 557 118 488 21 b 190 547 264 21 190 226 b 435 1082 190 882 271 1082 b 633 932 525 1082 600 1025 l 690 947 b 417 1121 629 1064 564 1121 b 39 519 144 1121 39 925 b 351 -22 39 92 157 -22 b 626 144 521 -22 588 65 b 678 -15 626 99 656 21 z m 369 -237 b 489 -92 432 -218 489 -147 b 411 -21 489 -49 456 -21 b 326 -78 376 -21 339 -36 b 403 -144 383 -78 403 -97 b 369 -237 403 -179 393 -211 z "},"ģ":{"ha":765,"x_min":0,"x_max":0,"o":"m 643 -128 b 346 -190 521 -169 424 -190 b 138 -54 193 -190 138 -111 b 403 124 138 31 263 97 b 240 194 293 142 240 168 b 261 224 240 203 247 213 b 361 211 290 217 317 211 b 692 551 568 211 692 324 b 658 732 692 619 681 678 b 765 860 726 732 750 758 b 663 796 739 817 703 796 b 613 806 647 796 632 799 b 399 901 560 865 497 901 b 56 550 189 901 56 738 b 210 246 56 438 104 306 b 103 183 136 226 103 206 b 239 115 103 157 149 136 b 0 -83 99 90 0 15 b 288 -237 0 -183 101 -237 b 658 -158 422 -237 542 -210 z m 417 254 b 186 607 292 254 186 382 b 336 849 186 765 239 849 b 563 479 478 849 563 672 b 417 254 563 328 510 254 z m 353 1006 b 476 1189 417 1031 476 1119 b 396 1278 476 1243 442 1278 b 308 1207 360 1278 321 1258 b 388 1122 367 1207 388 1182 b 353 1006 388 1079 376 1039 z "},"Ħ":{"ha":725,"x_min":0,"x_max":0,"o":"m 675 0 l 675 831 l 725 831 l 725 882 l 675 882 l 675 1110 l 529 1110 l 529 882 l 194 882 l 194 1110 l 50 1110 l 50 882 l 0 882 l 0 831 l 50 831 l 50 0 l 194 0 l 194 553 l 529 553 l 529 0 z m 529 592 l 194 592 l 194 831 l 529 831 z "},"ħ":{"ha":663,"x_min":0,"x_max":0,"o":"m 615 0 l 615 669 b 394 901 615 804 528 901 b 194 764 268 901 217 814 l 194 963 l 407 963 l 407 1014 l 194 1014 l 194 1133 l 50 1088 l 50 1014 l 0 1014 l 0 963 l 50 963 l 50 0 l 194 0 l 194 669 b 336 831 215 765 260 831 b 471 649 415 831 471 761 l 471 0 z "},"Ĩ":{"ha":246,"x_min":0,"x_max":0,"o":"m 194 0 l 194 1110 l 50 1110 l 50 0 z m 301 1382 b 239 1313 299 1357 292 1313 b 35 1401 168 1313 132 1401 b -99 1256 -43 1401 -97 1344 l -60 1256 b 4 1326 -54 1318 -15 1326 b 206 1238 67 1326 110 1238 b 343 1382 282 1238 342 1296 z "},"ĩ":{"ha":379,"x_min":0,"x_max":0,"o":"m 263 1 l 263 890 l 118 846 l 118 1 z m 369 1154 b 307 1085 367 1129 360 1085 b 103 1174 236 1085 200 1174 b -31 1028 25 1174 -29 1117 l 8 1028 b 72 1099 14 1090 53 1099 b 274 1010 135 1099 178 1010 b 411 1154 350 1010 410 1068 z "},"Ī":{"ha":246,"x_min":0,"x_max":0,"o":"m 194 0 l 194 1110 l 50 1110 l 50 0 z m 326 1301 l 326 1353 l -81 1353 l -81 1301 z "},"ī":{"ha":363,"x_min":0,"x_max":0,"o":"m 253 1 l 253 890 l 108 846 l 108 1 z m 385 1074 l 385 1125 l -22 1125 l -22 1074 z "},"Ĭ":{"ha":246,"x_min":0,"x_max":0,"o":"m 194 0 l 194 1110 l 50 1110 l 50 0 z m 275 1419 b 122 1254 261 1300 199 1254 b -31 1419 47 1254 -17 1300 l -74 1415 b 122 1176 -74 1269 14 1176 b 319 1415 229 1176 319 1269 z "},"ĭ":{"ha":363,"x_min":0,"x_max":0,"o":"m 253 1 l 253 890 l 108 846 l 108 1 z m 333 1192 b 181 1026 319 1072 257 1026 b 28 1192 106 1026 42 1072 l -15 1188 b 181 949 -15 1042 72 949 b 378 1188 288 949 378 1042 z "},"Į":{"ha":308,"x_min":0,"x_max":0,"o":"m 269 -161 b 175 -193 249 -179 226 -193 b 93 -140 108 -193 93 -169 b 257 0 93 -100 122 -51 l 257 1110 l 113 1110 l 113 -24 b -31 -143 7 -60 -31 -100 b 138 -237 -31 -181 -4 -237 b 283 -193 211 -237 253 -222 z "},"į":{"ha":289,"x_min":0,"x_max":0,"o":"m 249 -161 b 154 -193 228 -179 206 -193 b 72 -140 88 -193 72 -169 b 238 0 72 -100 101 -51 l 238 890 l 93 846 l 93 -24 b -51 -143 -14 -60 -51 -100 b 117 -237 -51 -181 -25 -237 b 263 -193 190 -237 232 -222 z m 168 986 b 251 1072 217 986 251 1028 b 167 1157 251 1117 219 1157 b 82 1072 117 1157 82 1117 b 168 986 82 1028 117 986 z "},"İ":{"ha":246,"x_min":0,"x_max":0,"o":"m 194 0 l 194 1110 l 50 1110 l 50 0 z m 124 1214 b 207 1300 169 1214 207 1254 b 124 1385 207 1347 172 1385 b 39 1300 78 1385 39 1347 b 124 1214 39 1254 78 1214 z "},"ı":{"ha":246,"x_min":0,"x_max":0,"o":"m 194 1 l 194 890 l 50 846 l 50 1 z "},"Ĳ":{"ha":661,"x_min":0,"x_max":0,"o":"m 194 121 l 194 1110 l 50 1110 l 50 121 z m 468 1 b 301 -194 468 -108 415 -194 b 99 1 186 -194 99 -107 l 99 31 l 50 31 l 50 1 b 313 -237 50 -129 139 -237 b 614 65 488 -237 614 -128 l 614 1110 l 468 1110 z "},"ĳ":{"ha":486,"x_min":0,"x_max":0,"o":"m 125 986 b 208 1072 171 986 208 1026 b 125 1157 208 1119 174 1157 b 40 1072 79 1157 40 1119 b 125 986 40 1026 79 986 z m 194 0 l 194 890 l 50 846 l 50 0 z m 369 986 b 454 1074 415 986 454 1025 b 369 1157 454 1119 415 1157 b 286 1074 322 1157 286 1118 b 369 986 286 1026 322 986 z m 67 -235 b 438 103 356 -189 438 -108 l 438 890 l 292 846 l 292 19 b 51 -207 292 -106 218 -165 z "},"Ķ":{"ha":685,"x_min":0,"x_max":0,"o":"m 674 0 l 336 722 l 661 1110 l 601 1110 l 194 624 l 194 1110 l 50 1110 l 50 0 l 194 0 l 194 556 l 238 606 l 517 0 z m 304 -237 b 424 -92 367 -218 424 -147 b 346 -21 424 -49 390 -21 b 261 -78 311 -21 274 -36 b 338 -144 318 -78 338 -97 b 304 -237 338 -179 328 -211 z "},"ķ":{"ha":657,"x_min":0,"x_max":0,"o":"m 646 0 l 357 576 l 629 882 l 574 882 l 194 463 l 194 1133 l 50 1088 l 50 0 l 194 0 l 194 394 l 257 464 l 490 0 z m 290 -237 b 410 -92 353 -218 410 -147 b 332 -21 410 -49 376 -21 b 247 -78 297 -21 260 -36 b 324 -144 304 -78 324 -97 b 290 -237 324 -179 314 -211 z "},"Ĺ":{"ha":506,"x_min":0,"x_max":0,"o":"m 494 0 l 494 39 l 194 39 l 194 1110 l 50 1110 l 50 0 z m 292 1322 b 321 1374 314 1339 321 1360 b 261 1429 321 1407 293 1429 b 204 1394 242 1429 218 1418 l 74 1207 l 110 1176 z "},"ĺ":{"ha":242,"x_min":0,"x_max":0,"o":"m 194 0 l 194 1133 l 50 1088 l 50 0 z m 257 1322 b 286 1374 279 1339 286 1360 b 226 1429 286 1407 258 1429 b 169 1394 207 1429 183 1418 l 39 1207 l 75 1176 z "},"Ļ":{"ha":506,"x_min":0,"x_max":0,"o":"m 494 0 l 494 39 l 194 39 l 194 1110 l 50 1110 l 50 0 z m 235 -237 b 354 -92 297 -218 354 -147 b 276 -21 354 -49 321 -21 b 192 -78 242 -21 204 -36 b 268 -144 249 -78 268 -97 b 235 -237 268 -179 258 -211 z "},"ļ":{"ha":242,"x_min":0,"x_max":0,"o":"m 194 0 l 194 1133 l 50 1088 l 50 0 z m 82 -237 b 201 -92 144 -218 201 -147 b 124 -21 201 -49 168 -21 b 39 -78 89 -21 51 -36 b 115 -144 96 -78 115 -97 b 82 -237 115 -179 106 -211 z "},"Ľ":{"ha":506,"x_min":0,"x_max":0,"o":"m 494 0 l 494 39 l 194 39 l 194 1110 l 50 1110 l 50 0 z m 382 861 b 506 1043 446 885 506 974 b 425 1133 506 1097 471 1133 b 338 1063 389 1133 350 1113 b 417 976 396 1063 417 1035 b 382 861 417 933 406 894 z "},"ľ":{"ha":415,"x_min":0,"x_max":0,"o":"m 194 0 l 194 1133 l 50 1088 l 50 0 z m 318 861 b 442 1043 382 885 442 974 b 361 1133 442 1097 407 1133 b 274 1063 325 1133 286 1113 b 353 976 332 1063 353 1035 b 318 861 353 933 342 894 z "},"Ł":{"ha":494,"x_min":0,"x_max":0,"o":"m 494 0 l 494 39 l 194 39 l 194 525 l 443 621 l 443 696 l 194 600 l 194 1110 l 50 1110 l 50 0 z "},"ł":{"ha":313,"x_min":0,"x_max":0,"o":"m 228 0 l 228 589 l 313 629 l 313 704 l 228 667 l 228 1124 l 83 1079 l 83 601 l 0 567 l 0 490 l 83 526 l 83 0 z "},"Ń":{"ha":665,"x_min":0,"x_max":0,"o":"m 615 0 l 615 1110 l 554 1110 l 554 354 l 178 1110 l 50 1110 l 50 1 l 111 1 l 111 938 l 596 0 z m 468 1322 b 497 1374 490 1339 497 1360 b 438 1429 497 1407 469 1429 b 381 1394 418 1429 394 1418 l 250 1207 l 286 1176 z "},"ń":{"ha":663,"x_min":0,"x_max":0,"o":"m 615 0 l 615 669 b 393 901 615 804 528 901 b 194 764 267 901 215 815 l 194 890 l 50 846 l 50 0 l 194 0 l 194 669 b 336 831 215 765 260 831 b 471 649 415 831 471 761 l 471 0 z m 285 949 l 468 1136 b 496 1189 486 1154 496 1172 b 436 1243 496 1218 472 1243 b 378 1208 410 1243 390 1231 l 249 979 z "},"Ņ":{"ha":665,"x_min":0,"x_max":0,"o":"m 615 0 l 615 1110 l 554 1110 l 554 354 l 178 1110 l 50 1110 l 50 1 l 111 1 l 111 938 l 596 0 z m 307 -237 b 426 -92 369 -218 426 -147 b 349 -21 426 -49 393 -21 b 264 -78 314 -21 276 -36 b 340 -144 321 -78 340 -97 b 307 -237 340 -179 331 -211 z "},"ņ":{"ha":663,"x_min":0,"x_max":0,"o":"m 615 0 l 615 669 b 393 901 615 804 528 901 b 194 764 267 901 215 815 l 194 890 l 50 846 l 50 0 l 194 0 l 194 669 b 336 831 215 765 260 831 b 471 649 415 831 471 761 l 471 0 z m 293 -237 b 413 -92 356 -218 413 -147 b 335 -21 413 -49 379 -21 b 250 -78 300 -21 263 -36 b 326 -144 307 -78 326 -97 b 293 -237 326 -179 317 -211 z "},"Ň":{"ha":665,"x_min":0,"x_max":0,"o":"m 615 0 l 615 1110 l 554 1110 l 554 354 l 178 1110 l 50 1110 l 50 1 l 111 1 l 111 938 l 596 0 z m 529 1400 l 493 1429 l 332 1290 l 172 1429 l 136 1400 l 274 1210 b 333 1176 292 1188 311 1176 b 392 1210 357 1176 376 1188 z "},"ň":{"ha":663,"x_min":0,"x_max":0,"o":"m 615 0 l 615 669 b 393 901 615 804 528 901 b 194 764 267 901 215 815 l 194 890 l 50 846 l 50 0 l 194 0 l 194 669 b 336 831 215 765 260 831 b 471 649 415 831 471 761 l 471 0 z m 528 1172 l 492 1201 l 331 1063 l 171 1201 l 135 1172 l 272 982 b 332 949 290 960 310 949 b 390 982 356 949 375 960 z "},"Ŋ":{"ha":725,"x_min":0,"x_max":0,"o":"m 304 -235 b 675 103 593 -189 675 -108 l 675 889 b 415 1121 675 1018 567 1121 b 194 983 278 1121 213 1035 l 194 1110 l 50 1065 l 50 0 l 194 0 l 194 889 b 367 1050 213 981 265 1050 b 529 868 478 1050 529 968 l 529 19 b 289 -207 529 -106 456 -165 z "},"ŋ":{"ha":663,"x_min":0,"x_max":0,"o":"m 244 -235 b 615 103 533 -189 615 -108 l 615 669 b 393 901 615 804 528 901 b 194 764 267 901 215 815 l 194 890 l 50 846 l 50 0 l 194 0 l 194 669 b 336 831 215 765 260 831 b 471 649 415 831 471 761 l 471 19 b 229 -207 471 -106 396 -165 z "},"Ō":{"ha":854,"x_min":0,"x_max":0,"o":"m 393 -22 b 814 575 694 -22 814 175 b 447 1121 814 999 679 1121 b 39 529 146 1121 39 915 b 393 -22 39 60 199 -22 z m 426 18 b 192 557 275 18 192 251 b 426 1079 192 872 281 1079 b 657 549 575 1079 657 865 b 426 18 657 229 572 18 z m 631 1301 l 631 1353 l 224 1353 l 224 1301 z "},"ō":{"ha":724,"x_min":0,"x_max":0,"o":"m 346 -22 b 685 461 550 -22 685 107 b 375 901 685 754 590 901 b 39 417 121 901 39 699 b 346 -22 39 128 125 -22 z m 383 22 b 185 482 250 22 185 178 b 335 851 185 751 236 851 b 547 378 457 851 547 697 b 383 22 547 111 483 22 z m 565 1074 l 565 1125 l 158 1125 l 158 1074 z "},"Ő":{"ha":854,"x_min":0,"x_max":0,"o":"m 393 -22 b 814 575 694 -22 814 175 b 447 1121 814 999 679 1121 b 39 529 146 1121 39 915 b 393 -22 39 60 199 -22 z m 426 18 b 192 557 275 18 192 251 b 426 1079 192 872 281 1079 b 657 549 575 1079 657 865 b 426 18 657 229 572 18 z m 471 1322 b 500 1374 492 1339 500 1360 b 440 1429 500 1407 472 1429 b 381 1394 421 1429 397 1418 l 253 1207 l 289 1176 z m 656 1322 b 683 1374 675 1339 683 1360 b 625 1429 683 1407 656 1429 b 565 1394 603 1429 582 1418 l 435 1207 l 472 1176 z "},"ő":{"ha":724,"x_min":0,"x_max":0,"o":"m 346 -22 b 685 461 550 -22 685 107 b 375 901 685 754 590 901 b 39 417 121 901 39 699 b 346 -22 39 128 125 -22 z m 383 22 b 185 482 250 22 185 178 b 335 851 185 751 236 851 b 547 378 457 851 547 697 b 383 22 547 111 483 22 z m 221 949 l 404 1136 b 432 1189 422 1154 432 1172 b 372 1243 432 1218 408 1243 b 314 1208 346 1243 326 1231 l 185 979 z m 410 949 l 593 1136 b 621 1189 611 1154 621 1172 b 561 1243 621 1218 597 1243 b 503 1208 535 1243 515 1231 l 374 979 z "},"Œ":{"ha":1171,"x_min":0,"x_max":0,"o":"m 1144 0 l 1144 39 l 735 39 l 735 536 l 972 536 l 972 576 l 735 576 l 735 1071 l 1144 1071 l 1144 1110 l 588 1110 l 588 1092 b 446 1121 553 1113 508 1121 b 39 529 146 1121 39 914 b 393 -22 39 60 199 -22 b 588 28 481 -22 544 -6 l 588 0 z m 588 158 b 439 18 565 74 522 18 b 192 558 268 18 192 253 b 442 1079 192 872 272 1079 b 588 947 508 1079 556 1046 z "},"œ":{"ha":1167,"x_min":0,"x_max":0,"o":"m 1028 149 b 871 25 974 61 928 25 b 685 436 726 25 685 240 b 686 497 685 461 685 486 l 1139 497 b 858 901 1139 717 1050 901 b 614 760 754 901 671 849 b 375 901 572 854 497 901 b 39 417 121 901 39 699 b 346 -22 39 128 125 -22 b 593 111 458 -22 542 18 b 822 -22 642 28 717 -22 b 1061 135 943 -22 1004 44 z m 383 22 b 185 482 250 22 185 178 b 335 851 185 751 236 851 b 521 368 458 851 521 699 b 383 22 521 111 482 22 z m 693 551 b 850 854 710 710 733 854 b 1024 551 976 854 1024 683 z "},"Ŕ":{"ha":696,"x_min":0,"x_max":0,"o":"m 471 121 b 639 -17 471 42 518 -17 b 696 -8 671 -17 679 -12 b 615 121 642 7 615 50 l 615 329 b 460 551 615 461 551 535 b 613 818 564 583 613 689 b 353 1110 613 992 526 1110 l 50 1110 l 50 0 l 194 0 l 194 535 l 347 535 b 471 386 421 535 471 488 z m 194 575 l 194 1071 l 260 1071 b 468 803 397 1071 468 989 b 346 575 468 661 426 575 z m 442 1322 b 471 1374 464 1339 471 1360 b 411 1429 471 1407 443 1429 b 354 1394 392 1429 368 1418 l 224 1207 l 260 1176 z "},"ŕ":{"ha":465,"x_min":0,"x_max":0,"o":"m 194 0 l 194 600 b 346 790 226 703 279 790 b 385 779 361 790 375 786 l 454 869 b 375 901 432 890 407 901 b 194 686 299 901 239 836 l 194 890 l 50 846 l 50 0 z m 200 949 l 383 1136 b 411 1189 401 1154 411 1172 b 351 1243 411 1218 388 1243 b 293 1208 325 1243 306 1231 l 164 979 z "},"Ŗ":{"ha":696,"x_min":0,"x_max":0,"o":"m 471 121 b 639 -17 471 42 518 -17 b 696 -8 671 -17 679 -12 b 615 121 642 7 615 50 l 615 329 b 460 551 615 461 551 535 b 613 818 564 583 613 689 b 353 1110 613 992 526 1110 l 50 1110 l 50 0 l 194 0 l 194 535 l 347 535 b 471 386 421 535 471 488 z m 194 575 l 194 1071 l 260 1071 b 468 803 397 1071 468 989 b 346 575 468 661 426 575 z m 290 -237 b 410 -92 353 -218 410 -147 b 332 -21 410 -49 376 -21 b 247 -78 297 -21 260 -36 b 324 -144 304 -78 324 -97 b 290 -237 324 -179 314 -211 z "},"ŗ":{"ha":465,"x_min":0,"x_max":0,"o":"m 194 0 l 194 600 b 346 790 226 703 279 790 b 385 779 361 790 375 786 l 454 869 b 375 901 432 890 407 901 b 194 686 299 901 239 836 l 194 890 l 50 846 l 50 0 z m 72 -237 b 192 -92 135 -218 192 -147 b 114 -21 192 -49 158 -21 b 29 -78 79 -21 42 -36 b 106 -144 86 -78 106 -97 b 72 -237 106 -179 96 -211 z "},"Ř":{"ha":696,"x_min":0,"x_max":0,"o":"m 471 121 b 639 -17 471 42 518 -17 b 696 -8 671 -17 679 -12 b 615 121 642 7 615 50 l 615 329 b 460 551 615 461 551 535 b 613 818 564 583 613 689 b 353 1110 613 992 526 1110 l 50 1110 l 50 0 l 194 0 l 194 535 l 347 535 b 471 386 421 535 471 488 z m 194 575 l 194 1071 l 260 1071 b 468 803 397 1071 468 989 b 346 575 468 661 426 575 z m 503 1400 l 467 1429 l 306 1290 l 146 1429 l 110 1400 l 247 1210 b 307 1176 265 1188 285 1176 b 365 1210 331 1176 350 1188 z "},"ř":{"ha":465,"x_min":0,"x_max":0,"o":"m 194 0 l 194 600 b 346 790 226 703 279 790 b 385 779 361 790 375 786 l 454 869 b 375 901 432 890 407 901 b 194 686 299 901 239 836 l 194 890 l 50 846 l 50 0 z m 443 1172 l 407 1201 l 246 1063 l 86 1201 l 50 1172 l 188 982 b 247 949 206 960 225 949 b 306 982 271 949 290 960 z "},"Ś":{"ha":588,"x_min":0,"x_max":0,"o":"m 18 139 b 253 -22 56 42 122 -22 b 558 256 432 -22 558 100 b 454 506 558 350 513 440 b 242 710 410 553 282 668 b 174 882 192 763 174 815 b 326 1071 174 1006 238 1071 b 485 967 400 1071 447 1026 l 528 1000 b 319 1121 472 1078 425 1121 b 47 854 149 1121 47 1007 b 133 633 47 769 78 699 b 353 413 194 560 296 482 b 417 235 394 361 417 310 b 250 28 417 99 349 28 b 69 171 151 28 89 100 z m 443 1322 b 472 1374 465 1339 472 1360 b 413 1429 472 1407 444 1429 b 356 1394 393 1429 369 1418 l 225 1207 l 261 1176 z "},"ś":{"ha":582,"x_min":0,"x_max":0,"o":"m 21 139 b 271 -22 53 54 131 -22 b 549 243 457 -22 549 108 b 451 429 549 324 514 386 b 232 563 396 469 299 511 b 157 700 181 603 157 643 b 306 847 157 799 224 847 b 463 753 369 847 425 819 l 504 789 b 297 901 468 858 392 901 b 33 644 142 901 33 790 b 122 460 33 569 64 507 b 324 331 175 417 264 374 b 413 186 388 283 413 239 b 253 31 413 96 342 31 b 71 171 165 31 101 96 z m 258 949 l 442 1136 b 469 1189 460 1154 469 1172 b 410 1243 469 1218 446 1243 b 351 1208 383 1243 364 1231 l 222 979 z "},"Ş":{"ha":588,"x_min":0,"x_max":0,"o":"m 164 -237 b 375 -129 321 -237 375 -186 b 272 -44 375 -71 322 -47 l 279 -21 b 558 256 444 -10 558 107 b 454 506 558 350 513 440 b 242 710 410 553 282 668 b 174 882 192 763 174 815 b 326 1071 174 1006 238 1071 b 485 967 400 1071 447 1026 l 528 1000 b 319 1121 472 1078 425 1121 b 47 854 149 1121 47 1007 b 133 633 47 769 78 699 b 353 413 194 560 296 482 b 417 235 394 361 417 310 b 250 28 417 99 349 28 b 69 171 151 28 89 100 l 18 139 b 239 -22 54 44 117 -18 l 221 -69 b 286 -131 254 -69 286 -86 b 164 -197 286 -178 247 -197 z "},"ş":{"ha":582,"x_min":0,"x_max":0,"o":"m 168 -237 b 379 -129 325 -237 379 -186 b 276 -44 379 -71 326 -47 l 283 -22 b 549 243 461 -17 549 111 b 451 429 549 324 514 386 b 232 563 396 469 299 511 b 157 700 181 603 157 643 b 306 847 157 799 224 847 b 463 753 369 847 425 819 l 504 789 b 297 901 468 858 392 901 b 33 644 142 901 33 790 b 122 460 33 569 64 507 b 324 331 175 417 264 374 b 413 186 388 283 413 239 b 253 31 413 96 342 31 b 71 171 165 31 101 96 l 21 139 b 243 -21 50 60 119 -11 l 225 -69 b 290 -131 258 -69 290 -86 b 168 -197 290 -178 251 -197 z "},"Š":{"ha":588,"x_min":0,"x_max":0,"o":"m 18 139 b 253 -22 56 42 122 -22 b 558 256 432 -22 558 100 b 454 506 558 350 513 440 b 242 710 410 553 282 668 b 174 882 192 763 174 815 b 326 1071 174 1006 238 1071 b 485 967 400 1071 447 1026 l 528 1000 b 319 1121 472 1078 425 1121 b 47 854 149 1121 47 1007 b 133 633 47 769 78 699 b 353 413 194 560 296 482 b 417 235 394 361 417 310 b 250 28 417 99 349 28 b 69 171 151 28 89 100 z m 504 1400 l 468 1429 l 307 1290 l 147 1429 l 111 1400 l 249 1210 b 308 1176 267 1188 286 1176 b 367 1210 332 1176 351 1188 z "},"š":{"ha":582,"x_min":0,"x_max":0,"o":"m 21 139 b 271 -22 53 54 131 -22 b 549 243 457 -22 549 108 b 451 429 549 324 514 386 b 232 563 396 469 299 511 b 157 700 181 603 157 643 b 306 847 157 799 224 847 b 463 753 369 847 425 819 l 504 789 b 297 901 468 858 392 901 b 33 644 142 901 33 790 b 122 460 33 569 64 507 b 324 331 175 417 264 374 b 413 186 388 283 413 239 b 253 31 413 96 342 31 b 71 171 165 31 101 96 z m 492 1172 l 456 1201 l 294 1063 l 135 1201 l 99 1172 l 236 982 b 296 949 254 960 274 949 b 354 982 319 949 339 960 z "},"Ţ":{"ha":568,"x_min":0,"x_max":0,"o":"m 360 0 l 360 1071 l 557 1071 l 557 1110 l 11 1110 l 11 1071 l 214 1071 l 214 0 z m 246 -237 b 365 -92 308 -218 365 -147 b 288 -21 365 -49 332 -21 b 203 -78 253 -21 215 -36 b 279 -144 260 -78 279 -97 b 246 -237 279 -179 269 -211 z "},"Ț":{"ha":568,"x_min":0,"x_max":0,"o":"m 360 0 l 360 1071 l 557 1071 l 557 1110 l 11 1110 l 11 1071 l 214 1071 l 214 0 z m 246 -237 b 365 -92 308 -218 365 -147 b 288 -21 365 -49 332 -21 b 203 -78 253 -21 215 -36 b 279 -144 260 -78 279 -97 b 246 -237 279 -179 269 -211 z "},"ţ":{"ha":438,"x_min":0,"x_max":0,"o":"m 425 54 b 347 22 396 31 376 22 b 224 181 258 22 224 104 l 224 843 l 340 843 l 340 882 l 224 882 l 224 1065 l 211 1065 b 11 882 186 943 124 882 l 11 843 l 79 843 l 79 200 b 304 -22 79 69 146 -22 b 438 22 356 -22 400 -12 z m 181 -237 b 300 -92 243 -218 300 -147 b 222 -21 300 -49 267 -21 b 138 -78 188 -21 150 -36 b 214 -144 194 -78 214 -97 b 181 -237 214 -179 204 -211 z "},"ț":{"ha":438,"x_min":0,"x_max":0,"o":"m 425 54 b 347 22 396 31 376 22 b 224 181 258 22 224 104 l 224 843 l 340 843 l 340 882 l 224 882 l 224 1065 l 211 1065 b 11 882 186 943 124 882 l 11 843 l 79 843 l 79 200 b 304 -22 79 69 146 -22 b 438 22 356 -22 400 -12 z m 181 -237 b 300 -92 243 -218 300 -147 b 222 -21 300 -49 267 -21 b 138 -78 188 -21 150 -36 b 214 -144 194 -78 214 -97 b 181 -237 214 -179 204 -211 z "},"Ť":{"ha":568,"x_min":0,"x_max":0,"o":"m 360 0 l 360 1071 l 557 1071 l 557 1110 l 11 1110 l 11 1071 l 214 1071 l 214 0 z m 481 1400 l 444 1429 l 283 1290 l 124 1429 l 88 1400 l 225 1210 b 285 1176 243 1188 263 1176 b 343 1210 308 1176 328 1188 z "},"ť":{"ha":486,"x_min":0,"x_max":0,"o":"m 425 54 b 347 22 396 31 376 22 b 224 181 258 22 224 104 l 224 843 l 340 843 l 340 882 l 224 882 l 224 1065 l 211 1065 b 11 882 186 943 124 882 l 11 843 l 79 843 l 79 200 b 304 -22 79 69 146 -22 b 438 22 356 -22 400 -12 z m 378 861 b 501 1043 442 885 501 974 b 421 1133 501 1097 467 1133 b 333 1063 385 1133 346 1113 b 413 976 392 1063 413 1035 b 378 861 413 933 401 894 z "},"Ŧ":{"ha":568,"x_min":0,"x_max":0,"o":"m 360 0 l 360 549 l 529 549 l 529 600 l 360 600 l 360 1071 l 557 1071 l 557 1110 l 11 1110 l 11 1071 l 214 1071 l 214 600 l 39 600 l 39 549 l 214 549 l 214 0 z "},"ŧ":{"ha":438,"x_min":0,"x_max":0,"o":"m 425 54 b 347 22 396 31 376 22 b 224 181 258 22 224 104 l 224 417 l 407 417 l 407 468 l 224 468 l 224 843 l 340 843 l 340 882 l 224 882 l 224 1065 l 211 1065 b 11 882 186 943 124 882 l 11 843 l 79 843 l 79 468 l 0 468 l 0 417 l 79 417 l 79 200 b 304 -22 79 69 146 -22 b 438 22 356 -22 400 -12 z "},"Ũ":{"ha":660,"x_min":0,"x_max":0,"o":"m 551 192 b 394 25 551 90 499 25 b 193 211 279 25 193 107 l 193 1110 l 47 1110 l 47 192 b 314 -22 47 39 129 -22 b 613 233 432 -22 613 3 l 613 1110 l 551 1110 z m 536 1382 b 474 1313 533 1357 526 1313 b 269 1401 403 1313 367 1401 b 136 1256 192 1401 138 1344 l 175 1256 b 239 1326 181 1318 219 1326 b 440 1238 301 1326 344 1238 b 578 1382 517 1238 576 1296 z "},"ũ":{"ha":663,"x_min":0,"x_max":0,"o":"m 613 0 l 613 890 l 468 844 l 468 219 b 308 29 453 142 410 29 b 192 219 235 29 192 92 l 192 890 l 47 844 l 47 200 b 275 -22 47 65 131 -22 b 468 103 375 -22 431 29 l 497 0 z m 510 1154 b 447 1085 507 1129 500 1085 b 243 1174 376 1085 340 1174 b 110 1028 165 1174 111 1117 l 149 1028 b 213 1099 154 1090 193 1099 b 414 1010 275 1099 318 1010 b 551 1154 490 1010 550 1068 z "},"Ū":{"ha":660,"x_min":0,"x_max":0,"o":"m 551 192 b 394 25 551 90 499 25 b 193 211 279 25 193 107 l 193 1110 l 47 1110 l 47 192 b 314 -22 47 39 129 -22 b 613 233 432 -22 613 3 l 613 1110 l 551 1110 z m 561 1301 l 561 1353 l 154 1353 l 154 1301 z "},"ū":{"ha":663,"x_min":0,"x_max":0,"o":"m 613 0 l 613 890 l 468 844 l 468 219 b 308 29 453 142 410 29 b 192 219 235 29 192 92 l 192 890 l 47 844 l 47 200 b 275 -22 47 65 131 -22 b 468 103 375 -22 431 29 l 497 0 z m 535 1074 l 535 1125 l 128 1125 l 128 1074 z "},"Ů":{"ha":660,"x_min":0,"x_max":0,"o":"m 551 192 b 394 25 551 90 499 25 b 193 211 279 25 193 107 l 193 1110 l 47 1110 l 47 192 b 314 -22 47 39 129 -22 b 613 233 432 -22 613 3 l 613 1110 l 551 1110 z m 357 1211 b 296 1301 315 1211 296 1253 b 357 1390 296 1350 315 1390 b 418 1301 400 1390 418 1350 b 357 1211 418 1253 400 1211 z m 357 1172 b 483 1301 422 1172 483 1228 b 357 1429 483 1374 422 1429 b 231 1301 292 1429 231 1374 b 357 1172 231 1228 292 1172 z "},"ů":{"ha":663,"x_min":0,"x_max":0,"o":"m 613 0 l 613 890 l 468 844 l 468 219 b 308 29 453 142 410 29 b 192 219 235 29 192 92 l 192 890 l 47 844 l 47 200 b 275 -22 47 65 131 -22 b 468 103 375 -22 431 29 l 497 0 z m 331 1001 b 269 1101 289 1001 269 1047 b 331 1200 269 1156 289 1200 b 392 1101 374 1200 392 1156 b 331 1001 392 1047 374 1001 z m 331 958 b 457 1101 396 958 457 1019 b 331 1243 457 1182 396 1243 b 204 1101 265 1243 204 1182 b 331 958 204 1019 265 958 z "},"Ű":{"ha":660,"x_min":0,"x_max":0,"o":"m 551 192 b 394 25 551 90 499 25 b 193 211 279 25 193 107 l 193 1110 l 47 1110 l 47 192 b 314 -22 47 39 129 -22 b 613 233 432 -22 613 3 l 613 1110 l 551 1110 z m 401 1322 b 431 1374 422 1339 431 1360 b 371 1429 431 1407 403 1429 b 311 1394 351 1429 328 1418 l 183 1207 l 219 1176 z m 586 1322 b 614 1374 606 1339 614 1360 b 556 1429 614 1407 586 1429 b 496 1394 533 1429 513 1418 l 365 1207 l 403 1176 z "},"ű":{"ha":663,"x_min":0,"x_max":0,"o":"m 613 0 l 613 890 l 468 844 l 468 219 b 308 29 453 142 410 29 b 192 219 235 29 192 92 l 192 890 l 47 844 l 47 200 b 275 -22 47 65 131 -22 b 468 103 375 -22 431 29 l 497 0 z m 190 949 l 374 1136 b 401 1189 392 1154 401 1172 b 342 1243 401 1218 378 1243 b 283 1208 315 1243 296 1231 l 154 979 z m 379 949 l 563 1136 b 590 1189 581 1154 590 1172 b 531 1243 590 1218 567 1243 b 472 1208 504 1243 485 1231 l 343 979 z "},"Ų":{"ha":660,"x_min":0,"x_max":0,"o":"m 482 -161 b 388 -193 461 -179 439 -193 b 306 -137 319 -193 306 -169 b 476 10 306 -51 407 -24 b 613 233 576 58 613 128 l 613 1110 l 551 1110 l 551 192 b 394 25 551 90 499 25 b 193 211 279 25 193 107 l 193 1110 l 47 1110 l 47 192 b 321 -22 47 39 129 -22 b 182 -142 218 -56 182 -96 b 350 -237 182 -181 207 -237 b 496 -193 424 -237 465 -222 z "},"ų":{"ha":663,"x_min":0,"x_max":0,"o":"m 628 -161 b 533 -193 607 -179 585 -193 b 451 -140 467 -193 451 -169 b 613 0 451 -100 481 -51 l 613 890 l 468 844 l 468 219 b 308 29 453 142 410 29 b 192 219 235 29 192 92 l 192 890 l 47 844 l 47 200 b 275 -22 47 65 131 -22 b 468 103 375 -22 431 29 l 501 -14 b 328 -143 371 -53 328 -97 b 496 -237 328 -181 354 -237 b 642 -193 569 -237 611 -222 z "},"Ŵ":{"ha":851,"x_min":0,"x_max":0,"o":"m 669 0 l 840 1110 l 786 1110 l 633 136 l 494 761 l 578 1110 l 522 1110 l 468 846 l 418 1110 l 274 1110 l 393 576 l 289 136 l 154 1110 l 11 1110 l 169 0 l 314 0 l 421 471 l 525 0 z m 622 1207 l 485 1397 b 425 1429 467 1419 447 1429 b 367 1397 401 1429 382 1419 l 229 1207 l 265 1176 l 425 1317 l 586 1176 z "},"ŵ":{"ha":915,"x_min":0,"x_max":0,"o":"m 643 0 l 906 882 l 856 882 l 671 253 l 479 882 l 325 882 l 440 532 l 328 253 l 165 882 l 11 882 l 281 0 l 300 0 l 475 461 l 626 0 z m 654 979 l 517 1169 b 457 1201 499 1192 479 1201 b 399 1169 433 1201 414 1192 l 261 979 l 297 949 l 457 1089 l 618 949 z "},"Ŷ":{"ha":590,"x_min":0,"x_max":0,"o":"m 361 0 l 361 606 l 582 1110 l 515 1110 l 331 686 l 168 1110 l 11 1110 l 217 588 l 217 0 z m 492 1207 l 354 1397 b 294 1429 336 1419 317 1429 b 236 1397 271 1429 251 1419 l 99 1207 l 135 1176 l 294 1317 l 456 1176 z "},"ŷ":{"ha":597,"x_min":0,"x_max":0,"o":"m 225 -60 b 28 -189 197 -139 110 -189 l 28 -237 b 294 -46 154 -237 256 -167 l 588 882 l 539 882 l 342 274 l 165 882 l 11 882 l 272 75 z m 494 979 l 357 1169 b 297 1201 339 1192 319 1201 b 239 1169 274 1201 254 1192 l 101 979 l 138 949 l 297 1089 l 458 949 z "},"Ÿ":{"ha":590,"x_min":0,"x_max":0,"o":"m 361 0 l 361 606 l 582 1110 l 515 1110 l 331 686 l 168 1110 l 11 1110 l 217 588 l 217 0 z m 414 1214 b 497 1300 460 1214 497 1254 b 414 1385 497 1347 463 1385 b 329 1300 367 1385 329 1347 b 414 1214 329 1254 367 1214 z m 178 1214 b 261 1300 224 1214 261 1254 b 178 1385 261 1347 226 1385 b 93 1300 132 1385 93 1347 b 178 1214 93 1254 132 1214 z "},"Ź":{"ha":639,"x_min":0,"x_max":0,"o":"m 625 0 l 625 39 l 201 39 l 606 1110 l 17 1110 l 17 1071 l 440 1071 l 31 0 z m 469 1322 b 499 1374 492 1339 499 1360 b 439 1429 499 1407 471 1429 b 382 1394 419 1429 396 1418 l 251 1207 l 288 1176 z "},"ź":{"ha":603,"x_min":0,"x_max":0,"o":"m 571 0 l 571 39 l 182 39 l 588 882 l 38 882 l 38 843 l 424 843 l 17 0 z m 269 949 l 453 1136 b 481 1189 471 1154 481 1172 b 421 1243 481 1218 457 1243 b 363 1208 394 1243 375 1231 l 233 979 z "},"Ż":{"ha":639,"x_min":0,"x_max":0,"o":"m 625 0 l 625 39 l 201 39 l 606 1110 l 17 1110 l 17 1071 l 440 1071 l 31 0 z m 333 1214 b 417 1300 379 1214 417 1254 b 333 1385 417 1347 382 1385 b 249 1300 288 1385 249 1347 b 333 1214 249 1254 288 1214 z "},"ż":{"ha":603,"x_min":0,"x_max":0,"o":"m 571 0 l 571 39 l 182 39 l 588 882 l 38 882 l 38 843 l 424 843 l 17 0 z m 315 986 b 399 1072 361 986 399 1026 b 315 1157 399 1119 364 1157 b 231 1072 269 1157 231 1119 b 315 986 231 1026 269 986 z "},"Ž":{"ha":639,"x_min":0,"x_max":0,"o":"m 625 0 l 625 39 l 201 39 l 606 1110 l 17 1110 l 17 1071 l 440 1071 l 31 0 z m 529 1400 l 493 1429 l 332 1290 l 172 1429 l 136 1400 l 274 1210 b 333 1176 292 1188 311 1176 b 392 1210 357 1176 376 1188 z "},"ž":{"ha":603,"x_min":0,"x_max":0,"o":"m 571 0 l 571 39 l 182 39 l 588 882 l 38 882 l 38 843 l 424 843 l 17 0 z m 511 1172 l 475 1201 l 314 1063 l 154 1201 l 118 1172 l 256 982 b 315 949 274 960 293 949 b 374 982 339 949 358 960 z "},"Ǝ":{"ha":632,"x_min":0,"x_max":0,"o":"m 583 0 l 583 1110 l 28 1110 l 28 1071 l 439 1071 l 439 574 l 201 574 l 201 533 l 439 533 l 439 39 l 28 39 l 28 0 z "},"Ə":{"ha":783,"x_min":0,"x_max":0,"o":"m 39 557 b 371 -22 39 154 114 -22 b 740 560 638 -22 740 169 b 406 1121 740 967 629 1121 b 85 931 269 1121 151 1063 l 142 931 b 357 1078 176 1017 278 1078 b 589 557 503 1078 585 863 z m 589 519 b 381 17 585 247 531 17 b 190 519 239 17 197 222 z "},"Ɣ":{"ha":588,"x_min":0,"x_max":0,"o":"m 336 136 l 154 1110 l 11 1110 l 203 104 b 126 -50 158 71 126 15 b 293 -237 126 -157 207 -237 b 461 -50 381 -237 461 -157 b 386 103 461 15 431 69 l 578 1110 l 522 1110 z m 293 -181 b 213 -50 239 -181 213 -121 b 293 79 213 21 239 79 b 375 -50 350 79 375 21 b 293 -181 375 -121 350 -181 z "},"Ɲ":{"ha":665,"x_min":0,"x_max":0,"o":"m 615 0 l 615 1110 l 554 1110 l 554 354 l 178 1110 l 50 1110 l 50 19 b -183 -207 50 -106 -56 -165 l -172 -235 b 111 103 49 -189 111 -108 l 111 938 l 596 0 z "},"ǝ":{"ha":706,"x_min":0,"x_max":0,"o":"m 31 382 b 313 -22 31 163 121 -22 b 669 461 514 -22 669 178 b 347 901 669 704 554 901 b 110 744 228 901 165 835 l 143 731 b 299 854 196 818 240 854 b 513 443 444 854 513 639 b 511 382 513 418 513 393 z m 504 328 b 321 25 485 169 438 25 b 147 328 193 25 147 196 z "},"Ǧ":{"ha":731,"x_min":0,"x_max":0,"o":"m 725 13 b 682 201 700 58 682 136 l 682 422 l 465 422 l 465 383 b 557 303 546 379 557 378 b 397 21 557 118 488 21 b 190 547 264 21 190 226 b 435 1082 190 882 271 1082 b 633 932 525 1082 600 1025 l 690 947 b 417 1121 629 1064 564 1121 b 39 519 144 1121 39 925 b 351 -22 39 92 157 -22 b 626 144 521 -22 588 65 b 678 -15 626 99 656 21 z m 603 1400 l 567 1429 l 406 1290 l 246 1429 l 210 1400 l 347 1210 b 407 1176 365 1188 385 1176 b 465 1210 431 1176 450 1188 z "},"ǧ":{"ha":765,"x_min":0,"x_max":0,"o":"m 643 -128 b 346 -190 521 -169 424 -190 b 138 -54 193 -190 138 -111 b 403 124 138 31 263 97 b 240 194 293 142 240 168 b 261 224 240 203 247 213 b 361 211 290 217 317 211 b 692 551 568 211 692 324 b 658 732 692 619 681 678 b 765 860 726 732 750 758 b 663 796 739 817 703 796 b 613 806 647 796 632 799 b 399 901 560 865 497 901 b 56 550 189 901 56 738 b 210 246 56 438 104 306 b 103 183 136 226 103 206 b 239 115 103 157 149 136 b 0 -83 99 90 0 15 b 288 -237 0 -183 101 -237 b 658 -158 422 -237 542 -210 z m 417 254 b 186 607 292 254 186 382 b 336 849 186 765 239 849 b 563 479 478 849 563 672 b 417 254 563 328 510 254 z m 579 1172 l 543 1201 l 382 1063 l 222 1201 l 186 1172 l 324 982 b 383 949 342 960 361 949 b 442 982 407 949 426 960 z "},"Ǵ":{"ha":731,"x_min":0,"x_max":0,"o":"m 725 13 b 682 201 700 58 682 136 l 682 422 l 465 422 l 465 383 b 557 303 546 379 557 378 b 397 21 557 118 488 21 b 190 547 264 21 190 226 b 435 1082 190 882 271 1082 b 633 932 525 1082 600 1025 l 690 947 b 417 1121 629 1064 564 1121 b 39 519 144 1121 39 925 b 351 -22 39 92 157 -22 b 626 144 521 -22 588 65 b 678 -15 626 99 656 21 z m 529 1322 b 558 1374 551 1339 558 1360 b 499 1429 558 1407 531 1429 b 442 1394 479 1429 456 1418 l 311 1207 l 347 1176 z "},"ǵ":{"ha":765,"x_min":0,"x_max":0,"o":"m 643 -128 b 346 -190 521 -169 424 -190 b 138 -54 193 -190 138 -111 b 403 124 138 31 263 97 b 240 194 293 142 240 168 b 261 224 240 203 247 213 b 361 211 290 217 317 211 b 692 551 568 211 692 324 b 658 732 692 619 681 678 b 765 860 726 732 750 758 b 663 796 739 817 703 796 b 613 806 647 796 632 799 b 399 901 560 865 497 901 b 56 550 189 901 56 738 b 210 246 56 438 104 306 b 103 183 136 226 103 206 b 239 115 103 157 149 136 b 0 -83 99 90 0 15 b 288 -237 0 -183 101 -237 b 658 -158 422 -237 542 -210 z m 417 254 b 186 607 292 254 186 382 b 336 849 186 765 239 849 b 563 479 478 849 563 672 b 417 254 563 328 510 254 z m 336 949 l 519 1136 b 547 1189 538 1154 547 1172 b 488 1243 547 1218 524 1243 b 429 1208 461 1243 442 1231 l 300 979 z "},"Ǹ":{"ha":665,"x_min":0,"x_max":0,"o":"m 615 0 l 615 1110 l 554 1110 l 554 354 l 178 1110 l 50 1110 l 50 1 l 111 1 l 111 938 l 596 0 z m 414 1207 l 285 1394 b 225 1429 268 1418 246 1429 b 167 1374 193 1429 167 1407 b 194 1322 167 1360 175 1339 l 378 1176 z "},"ǹ":{"ha":663,"x_min":0,"x_max":0,"o":"m 615 0 l 615 669 b 393 901 615 804 528 901 b 194 764 267 901 215 815 l 194 890 l 50 846 l 50 0 l 194 0 l 194 669 b 336 831 215 765 260 831 b 471 649 415 831 471 761 l 471 0 z m 413 979 l 283 1208 b 225 1243 271 1231 251 1243 b 165 1189 189 1243 165 1218 b 193 1136 165 1172 175 1154 l 376 949 z "},"Ș":{"ha":588,"x_min":0,"x_max":0,"o":"m 18 139 b 253 -22 56 42 122 -22 b 558 256 432 -22 558 100 b 454 506 558 350 513 440 b 242 710 410 553 282 668 b 174 882 192 763 174 815 b 326 1071 174 1006 238 1071 b 485 967 400 1071 447 1026 l 528 1000 b 319 1121 472 1078 425 1121 b 47 854 149 1121 47 1007 b 133 633 47 769 78 699 b 353 413 194 560 296 482 b 417 235 394 361 417 310 b 250 28 417 99 349 28 b 69 171 151 28 89 100 z m 268 -237 b 388 -92 331 -218 388 -147 b 310 -21 388 -49 354 -21 b 225 -78 275 -21 238 -36 b 301 -144 282 -78 301 -97 b 268 -237 301 -179 292 -211 z "},"ș":{"ha":582,"x_min":0,"x_max":0,"o":"m 246 -237 b 365 -92 308 -218 365 -147 b 299 -21 365 -53 338 -25 b 549 243 465 -8 549 115 b 451 429 549 324 514 386 b 232 563 396 469 299 511 b 157 700 181 603 157 643 b 306 847 157 799 224 847 b 463 753 369 847 425 819 l 504 789 b 297 901 468 858 392 901 b 33 644 142 901 33 790 b 122 460 33 569 64 507 b 324 331 175 417 264 374 b 413 186 388 283 413 239 b 253 31 413 96 342 31 b 71 171 165 31 101 96 l 21 139 b 269 -22 53 54 129 -21 b 203 -78 240 -26 213 -43 b 279 -144 260 -78 279 -97 b 246 -237 279 -179 269 -211 z "},"Ɂ":{"ha":550,"x_min":0,"x_max":0,"o":"m 331 0 l 331 440 b 533 911 331 600 533 728 b 283 1121 533 1026 453 1121 b 11 1007 189 1121 64 1092 l 42 972 b 233 1072 92 1036 160 1072 b 396 915 343 1072 396 996 b 186 440 396 754 186 594 l 186 0 z "},"ɂ":{"ha":550,"x_min":0,"x_max":0,"o":"m 331 0 l 331 221 b 533 692 331 381 533 508 b 283 901 533 807 453 901 b 11 788 189 901 64 872 l 42 753 b 233 853 92 817 160 853 b 396 696 343 853 396 776 b 186 221 396 535 186 375 l 186 0 z "},"Ɍ":{"ha":761,"x_min":0,"x_max":0,"o":"m 536 121 b 704 -17 536 42 583 -17 b 761 -8 736 -17 744 -12 b 681 121 707 7 681 50 l 681 329 b 525 551 681 461 617 535 b 678 818 629 583 678 689 b 418 1110 678 992 592 1110 l 115 1110 l 115 575 l 0 575 l 0 535 l 115 535 l 115 0 l 260 0 l 260 535 l 413 535 b 536 386 486 535 536 488 z m 260 575 l 260 1071 l 325 1071 b 533 803 463 1071 533 989 b 411 575 533 661 492 575 z "},"ɍ":{"ha":519,"x_min":0,"x_max":0,"o":"m 249 0 l 249 418 l 407 418 l 407 469 l 249 469 l 249 600 b 400 790 281 703 333 790 b 439 779 415 790 429 786 l 508 869 b 429 901 486 890 461 901 b 249 686 353 901 293 836 l 249 890 l 104 846 l 104 469 l 0 469 l 0 418 l 104 418 l 104 0 z "},"ɣ":{"ha":599,"x_min":0,"x_max":0,"o":"m 258 117 b 138 -56 190 96 138 28 b 303 -237 138 -160 217 -237 b 468 -56 388 -237 468 -160 b 349 115 468 26 414 94 l 588 882 l 539 882 l 344 260 l 167 882 l 11 882 z m 303 -183 b 222 -56 249 -183 222 -125 b 303 69 222 13 249 69 b 382 -56 358 69 382 13 b 303 -183 382 -125 358 -183 z "},"ɲ":{"ha":663,"x_min":0,"x_max":0,"o":"m 615 0 l 615 669 b 393 901 615 804 528 901 b 194 764 267 901 215 815 l 194 890 l 50 846 l 50 19 b -190 -207 50 -106 -24 -165 l -175 -235 b 194 103 114 -189 194 -108 l 194 669 b 336 831 215 765 260 831 b 471 649 415 831 471 761 l 471 0 z "},"ˆ":{"ha":449,"x_min":0,"x_max":0,"o":"m 421 979 l 283 1169 b 224 1201 265 1192 246 1201 b 165 1169 200 1201 181 1192 l 28 979 l 64 949 l 224 1089 l 385 949 z "},"ˇ":{"ha":449,"x_min":0,"x_max":0,"o":"m 421 1172 l 385 1201 l 224 1063 l 64 1201 l 28 1172 l 165 982 b 225 949 183 960 203 949 b 283 982 249 949 268 960 z "},"˘":{"ha":421,"x_min":0,"x_max":0,"o":"m 363 1192 b 210 1026 349 1072 286 1026 b 57 1192 135 1026 71 1072 l 14 1188 b 210 949 14 1042 101 949 b 407 1188 317 949 407 1042 z "},"˙":{"ha":257,"x_min":0,"x_max":0,"o":"m 129 986 b 213 1072 175 986 213 1026 b 129 1157 213 1119 178 1157 b 44 1072 83 1157 44 1119 b 129 986 44 1026 83 986 z "},"˚":{"ha":279,"x_min":0,"x_max":0,"o":"m 139 1001 b 78 1101 97 1001 78 1047 b 139 1200 78 1156 97 1200 b 200 1101 182 1200 200 1156 b 139 1001 200 1047 182 1001 z m 139 958 b 265 1101 204 958 265 1019 b 139 1243 265 1182 204 1243 b 13 1101 74 1243 13 1182 b 139 958 13 1019 74 958 z "},"˛":{"ha":349,"x_min":0,"x_max":0,"o":"m 318 -161 b 224 -193 297 -179 275 -193 b 142 -140 157 -193 142 -169 b 303 0 142 -100 171 -51 l 244 0 b 18 -143 74 -42 18 -92 b 186 -237 18 -181 44 -237 b 332 -193 260 -237 301 -222 z "},"˜":{"ha":489,"x_min":0,"x_max":0,"o":"m 426 1154 b 364 1085 424 1129 417 1085 b 160 1174 293 1085 257 1174 b 26 1028 82 1174 28 1117 l 65 1028 b 129 1099 71 1090 110 1099 b 331 1010 192 1099 235 1010 b 468 1154 407 1010 467 1068 z "},"˝":{"ha":460,"x_min":0,"x_max":0,"o":"m 44 949 l 228 1136 b 256 1189 246 1154 256 1172 b 196 1243 256 1218 232 1243 b 138 1208 169 1243 150 1231 l 8 979 z m 233 949 l 417 1136 b 444 1189 435 1154 444 1172 b 385 1243 444 1218 421 1243 b 326 1208 358 1243 339 1231 l 197 979 z "},"̀":{"ha":0,"x_min":0,"x_max":0,"o":"m -243 979 l -372 1208 b -431 1243 -385 1231 -404 1243 b -490 1189 -467 1243 -490 1218 b -462 1136 -490 1172 -481 1154 l -279 949 z "},"́":{"ha":0,"x_min":0,"x_max":0,"o":"m -371 949 l -187 1136 b -160 1189 -169 1154 -160 1172 b -219 1243 -160 1218 -183 1243 b -278 1208 -246 1243 -265 1231 l -407 979 z "},"̂":{"ha":0,"x_min":0,"x_max":0,"o":"m -129 979 l -267 1169 b -326 1201 -285 1192 -304 1201 b -385 1169 -350 1201 -369 1192 l -522 979 l -486 949 l -326 1089 l -165 949 z "},"̃":{"ha":0,"x_min":0,"x_max":0,"o":"m -150 1154 b -212 1085 -153 1129 -160 1085 b -417 1174 -283 1085 -319 1174 b -550 1028 -494 1174 -549 1117 l -511 1028 b -447 1099 -506 1090 -467 1099 b -246 1010 -385 1099 -342 1010 b -108 1154 -169 1010 -110 1068 z "},"̄":{"ha":0,"x_min":0,"x_max":0,"o":"m -122 1074 l -122 1125 l -529 1125 l -529 1074 z "},"̆":{"ha":0,"x_min":0,"x_max":0,"o":"m -174 1192 b -326 1026 -187 1072 -250 1026 b -479 1192 -401 1026 -465 1072 l -522 1188 b -326 949 -522 1042 -435 949 b -129 1188 -219 949 -129 1042 z "},"̇":{"ha":0,"x_min":0,"x_max":0,"o":"m -325 986 b -242 1072 -279 986 -242 1026 b -325 1157 -242 1119 -276 1157 b -410 1072 -371 1157 -410 1119 b -325 986 -410 1026 -371 986 z "},"̈":{"ha":0,"x_min":0,"x_max":0,"o":"m -208 986 b -125 1072 -162 986 -125 1026 b -208 1157 -125 1119 -160 1157 b -293 1072 -256 1157 -293 1119 b -208 986 -293 1026 -256 986 z m -444 986 b -361 1072 -399 986 -361 1026 b -444 1157 -361 1119 -396 1157 b -529 1072 -490 1157 -529 1119 b -444 986 -529 1026 -490 986 z "},"̊":{"ha":0,"x_min":0,"x_max":0,"o":"m -325 1001 b -386 1101 -367 1001 -386 1047 b -325 1200 -386 1156 -367 1200 b -264 1101 -282 1200 -264 1156 b -325 1001 -264 1047 -282 1001 z m -325 958 b -199 1101 -260 958 -199 1019 b -325 1243 -199 1182 -260 1243 b -451 1101 -390 1243 -451 1182 b -325 958 -451 1019 -390 958 z "},"̋":{"ha":0,"x_min":0,"x_max":0,"o":"m -468 949 l -285 1136 b -257 1189 -267 1154 -257 1172 b -317 1243 -257 1218 -281 1243 b -375 1208 -343 1243 -362 1231 l -504 979 z m -279 949 l -96 1136 b -68 1189 -78 1154 -68 1172 b -128 1243 -68 1218 -92 1243 b -186 1208 -154 1243 -174 1231 l -315 979 z "},"̌":{"ha":0,"x_min":0,"x_max":0,"o":"m -133 1172 l -169 1201 l -331 1063 l -490 1201 l -526 1172 l -389 982 b -329 949 -371 960 -351 949 b -271 982 -306 949 -286 960 z "},"̓":{"ha":0,"x_min":0,"x_max":0,"o":"m -286 1236 b -410 1053 -350 1211 -410 1122 b -329 964 -410 999 -375 964 b -242 1035 -293 964 -254 983 b -321 1119 -300 1035 -321 1060 b -286 1236 -321 1163 -310 1203 z "},"̣":{"ha":0,"x_min":0,"x_max":0,"o":"m -325 -211 b -242 -125 -279 -211 -242 -171 b -325 -40 -242 -78 -276 -40 b -410 -125 -371 -40 -410 -78 b -325 -211 -410 -171 -371 -211 z "},"̦":{"ha":0,"x_min":0,"x_max":0,"o":"m -362 -237 b -243 -92 -300 -218 -243 -147 b -321 -21 -243 -49 -276 -21 b -406 -78 -356 -21 -393 -36 b -329 -144 -349 -78 -329 -97 b -362 -237 -329 -179 -339 -211 z "},"̧":{"ha":0,"x_min":0,"x_max":0,"o":"m -431 -237 b -219 -129 -274 -237 -219 -186 b -322 -44 -219 -71 -272 -47 l -304 11 l -343 11 l -374 -69 b -308 -131 -340 -69 -308 -86 b -431 -197 -308 -178 -347 -197 z "},"̨":{"ha":0,"x_min":0,"x_max":0,"o":"m -181 -161 b -275 -193 -201 -179 -224 -193 b -357 -140 -342 -193 -357 -169 b -196 0 -357 -100 -328 -51 l -254 0 b -481 -143 -425 -42 -481 -92 b -312 -237 -481 -181 -454 -237 b -167 -193 -239 -237 -197 -222 z "},"̭":{"ha":0,"x_min":0,"x_max":0,"o":"m -128 -212 l -265 -60 b -325 -35 -283 -43 -303 -35 b -383 -60 -349 -35 -368 -43 l -521 -212 l -485 -237 l -325 -125 l -164 -237 z "},"֏":{"ha":686,"x_min":0,"x_max":0,"o":"m 575 0 l 575 285 l 667 285 l 667 336 l 575 336 l 575 563 l 667 563 l 667 614 l 575 614 l 575 829 b 274 1132 575 1022 449 1132 b 11 893 100 1132 11 1024 l 11 839 l 60 839 l 60 893 b 263 1089 60 1001 147 1089 b 429 893 376 1089 429 1003 l 429 614 l 260 614 l 260 563 l 429 563 l 429 336 l 260 336 l 260 285 l 429 285 l 429 0 z "},"Ḓ":{"ha":775,"x_min":0,"x_max":0,"o":"m 257 0 b 736 526 601 0 736 139 b 365 1110 736 792 672 1110 l 50 1110 l 50 0 z m 194 39 l 194 1071 l 264 1071 b 589 525 468 1071 589 879 b 304 39 589 243 513 39 z m 542 -212 l 404 -60 b 344 -35 386 -43 367 -35 b 286 -60 321 -35 301 -43 l 149 -212 l 185 -237 l 344 -125 l 506 -237 z "},"ḓ":{"ha":683,"x_min":0,"x_max":0,"o":"m 633 0 l 633 1133 l 488 1088 l 488 757 b 296 901 453 860 379 901 b 39 472 122 901 39 721 b 307 -22 39 222 125 -22 b 488 103 394 -22 456 31 l 518 0 z m 488 222 b 353 29 478 151 424 29 b 182 514 264 29 182 219 b 328 850 182 750 233 850 b 488 653 422 850 460 749 z m 593 -212 l 456 -60 b 396 -35 438 -43 418 -35 b 338 -60 372 -35 353 -43 l 200 -212 l 236 -237 l 396 -125 l 557 -237 z "},"Ḥ":{"ha":725,"x_min":0,"x_max":0,"o":"m 675 0 l 675 1110 l 529 1110 l 529 592 l 194 592 l 194 1110 l 50 1110 l 50 0 l 194 0 l 194 553 l 529 553 l 529 0 z m 363 -211 b 446 -125 408 -211 446 -171 b 363 -40 446 -78 411 -40 b 278 -125 317 -40 278 -78 b 363 -211 278 -171 317 -211 z "},"ḥ":{"ha":663,"x_min":0,"x_max":0,"o":"m 615 0 l 615 669 b 394 901 615 804 528 901 b 194 764 268 901 217 814 l 194 1133 l 50 1088 l 50 0 l 194 0 l 194 669 b 336 831 215 765 260 831 b 471 649 415 831 471 761 l 471 0 z m 332 -211 b 415 -125 378 -211 415 -171 b 332 -40 415 -78 381 -40 b 247 -125 286 -40 247 -78 b 332 -211 247 -171 286 -211 z "},"Ḽ":{"ha":506,"x_min":0,"x_max":0,"o":"m 494 0 l 494 39 l 194 39 l 194 1110 l 50 1110 l 50 0 z m 476 -212 l 339 -60 b 279 -35 321 -43 301 -35 b 221 -60 256 -35 236 -43 l 83 -212 l 119 -237 l 279 -125 l 440 -237 z "},"ḽ":{"ha":242,"x_min":0,"x_max":0,"o":"m 194 0 l 194 1133 l 50 1088 l 50 0 z m 317 -212 l 179 -60 b 119 -35 161 -43 142 -35 b 61 -60 96 -35 76 -43 l -76 -212 l -40 -237 l 119 -125 l 281 -237 z "},"Ṅ":{"ha":665,"x_min":0,"x_max":0,"o":"m 615 0 l 615 1110 l 554 1110 l 554 354 l 178 1110 l 50 1110 l 50 1 l 111 1 l 111 938 l 596 0 z m 333 1214 b 417 1300 379 1214 417 1254 b 333 1385 417 1347 382 1385 b 249 1300 288 1385 249 1347 b 333 1214 249 1254 288 1214 z "},"ṅ":{"ha":663,"x_min":0,"x_max":0,"o":"m 615 0 l 615 669 b 393 901 615 804 528 901 b 194 764 267 901 215 815 l 194 890 l 50 846 l 50 0 l 194 0 l 194 669 b 336 831 215 765 260 831 b 471 649 415 831 471 761 l 471 0 z m 332 986 b 415 1072 378 986 415 1026 b 332 1157 415 1119 381 1157 b 247 1072 286 1157 247 1119 b 332 986 247 1026 286 986 z "},"Ṋ":{"ha":665,"x_min":0,"x_max":0,"o":"m 615 0 l 615 1110 l 554 1110 l 554 354 l 178 1110 l 50 1110 l 50 1 l 111 1 l 111 938 l 596 0 z m 529 -212 l 392 -60 b 332 -35 374 -43 354 -35 b 274 -60 308 -35 289 -43 l 136 -212 l 172 -237 l 332 -125 l 493 -237 z "},"ṋ":{"ha":663,"x_min":0,"x_max":0,"o":"m 615 0 l 615 669 b 393 901 615 804 528 901 b 194 764 267 901 215 815 l 194 890 l 50 846 l 50 0 l 194 0 l 194 669 b 336 831 215 765 260 831 b 471 649 415 831 471 761 l 471 0 z m 528 -212 l 390 -60 b 331 -35 372 -43 353 -35 b 272 -60 307 -35 288 -43 l 135 -212 l 171 -237 l 331 -125 l 492 -237 z "},"Ṛ":{"ha":696,"x_min":0,"x_max":0,"o":"m 471 121 b 639 -17 471 42 518 -17 b 696 -8 671 -17 679 -12 b 615 121 642 7 615 50 l 615 329 b 460 551 615 461 551 535 b 613 818 564 583 613 689 b 353 1110 613 992 526 1110 l 50 1110 l 50 0 l 194 0 l 194 535 l 347 535 b 471 386 421 535 471 488 z m 194 575 l 194 1071 l 260 1071 b 468 803 397 1071 468 989 b 346 575 468 661 426 575 z m 331 -211 b 414 -125 376 -211 414 -171 b 331 -40 414 -78 379 -40 b 246 -125 285 -40 246 -78 b 331 -211 246 -171 285 -211 z "},"ṛ":{"ha":465,"x_min":0,"x_max":0,"o":"m 194 0 l 194 600 b 346 790 226 703 279 790 b 385 779 361 790 375 786 l 454 869 b 375 901 432 890 407 901 b 194 686 299 901 239 836 l 194 890 l 50 846 l 50 0 z m 124 -211 b 207 -125 169 -211 207 -171 b 124 -40 207 -78 172 -40 b 39 -125 78 -40 39 -78 b 124 -211 39 -171 78 -211 z "},"Ṣ":{"ha":588,"x_min":0,"x_max":0,"o":"m 18 139 b 253 -22 56 42 122 -22 b 558 256 432 -22 558 100 b 454 506 558 350 513 440 b 242 710 410 553 282 668 b 174 882 192 763 174 815 b 326 1071 174 1006 238 1071 b 485 967 400 1071 447 1026 l 528 1000 b 319 1121 472 1078 425 1121 b 47 854 149 1121 47 1007 b 133 633 47 769 78 699 b 353 413 194 560 296 482 b 417 235 394 361 417 310 b 250 28 417 99 349 28 b 69 171 151 28 89 100 z m 308 -211 b 392 -125 354 -211 392 -171 b 308 -40 392 -78 357 -40 b 224 -125 263 -40 224 -78 b 308 -211 224 -171 263 -211 z "},"ṣ":{"ha":582,"x_min":0,"x_max":0,"o":"m 21 139 b 271 -22 53 54 131 -22 b 549 243 457 -22 549 108 b 451 429 549 324 514 386 b 232 563 396 469 299 511 b 157 700 181 603 157 643 b 306 847 157 799 224 847 b 463 753 369 847 425 819 l 504 789 b 297 901 468 858 392 901 b 33 644 142 901 33 790 b 122 460 33 569 64 507 b 324 331 175 417 264 374 b 413 186 388 283 413 239 b 253 31 413 96 342 31 b 71 171 165 31 101 96 z m 278 -211 b 361 -125 324 -211 361 -171 b 278 -40 361 -78 326 -40 b 193 -125 232 -40 193 -78 b 278 -211 193 -171 232 -211 z "},"Ṭ":{"ha":568,"x_min":0,"x_max":0,"o":"m 360 0 l 360 1071 l 557 1071 l 557 1110 l 11 1110 l 11 1071 l 214 1071 l 214 0 z m 285 -211 b 368 -125 331 -211 368 -171 b 285 -40 368 -78 333 -40 b 200 -125 239 -40 200 -78 b 285 -211 200 -171 239 -211 z "},"ṭ":{"ha":438,"x_min":0,"x_max":0,"o":"m 425 54 b 347 22 396 31 376 22 b 224 181 258 22 224 104 l 224 843 l 340 843 l 340 882 l 224 882 l 224 1065 l 211 1065 b 11 882 186 943 124 882 l 11 843 l 79 843 l 79 200 b 304 -22 79 69 146 -22 b 438 22 356 -22 400 -12 z m 244 -211 b 328 -125 290 -211 328 -171 b 244 -40 328 -78 293 -40 b 160 -125 199 -40 160 -78 b 244 -211 160 -171 199 -211 z "},"Ẁ":{"ha":851,"x_min":0,"x_max":0,"o":"m 669 0 l 840 1110 l 786 1110 l 633 136 l 494 761 l 578 1110 l 522 1110 l 468 846 l 418 1110 l 274 1110 l 393 576 l 289 136 l 154 1110 l 11 1110 l 169 0 l 314 0 l 421 471 l 525 0 z m 507 1207 l 378 1394 b 318 1429 361 1418 339 1429 b 260 1374 286 1429 260 1407 b 288 1322 260 1360 268 1339 l 471 1176 z "},"ẁ":{"ha":915,"x_min":0,"x_max":0,"o":"m 643 0 l 906 882 l 856 882 l 671 253 l 479 882 l 325 882 l 440 532 l 328 253 l 165 882 l 11 882 l 281 0 l 300 0 l 475 461 l 626 0 z m 539 979 l 410 1208 b 351 1243 397 1231 378 1243 b 292 1189 315 1243 292 1218 b 319 1136 292 1172 301 1154 l 503 949 z "},"Ẃ":{"ha":851,"x_min":0,"x_max":0,"o":"m 669 0 l 840 1110 l 786 1110 l 633 136 l 494 761 l 578 1110 l 522 1110 l 468 846 l 418 1110 l 274 1110 l 393 576 l 289 136 l 154 1110 l 11 1110 l 169 0 l 314 0 l 421 471 l 525 0 z m 561 1322 b 590 1374 583 1339 590 1360 b 531 1429 590 1407 563 1429 b 474 1394 511 1429 488 1418 l 343 1207 l 379 1176 z "},"ẃ":{"ha":915,"x_min":0,"x_max":0,"o":"m 643 0 l 906 882 l 856 882 l 671 253 l 479 882 l 325 882 l 440 532 l 328 253 l 165 882 l 11 882 l 281 0 l 300 0 l 475 461 l 626 0 z m 411 949 l 594 1136 b 622 1189 613 1154 622 1172 b 563 1243 622 1218 599 1243 b 504 1208 536 1243 517 1231 l 375 979 z "},"Ẅ":{"ha":851,"x_min":0,"x_max":0,"o":"m 669 0 l 840 1110 l 786 1110 l 633 136 l 494 761 l 578 1110 l 522 1110 l 468 846 l 418 1110 l 274 1110 l 393 576 l 289 136 l 154 1110 l 11 1110 l 169 0 l 314 0 l 421 471 l 525 0 z m 544 1214 b 628 1300 590 1214 628 1254 b 544 1385 628 1347 593 1385 b 460 1300 497 1385 460 1347 b 544 1214 460 1254 497 1214 z m 308 1214 b 392 1300 354 1214 392 1254 b 308 1385 392 1347 357 1385 b 224 1300 263 1385 224 1347 b 308 1214 224 1254 263 1214 z "},"ẅ":{"ha":915,"x_min":0,"x_max":0,"o":"m 643 0 l 906 882 l 856 882 l 671 253 l 479 882 l 325 882 l 440 532 l 328 253 l 165 882 l 11 882 l 281 0 l 300 0 l 475 461 l 626 0 z m 576 986 b 660 1072 622 986 660 1026 b 576 1157 660 1119 625 1157 b 492 1072 529 1157 492 1119 b 576 986 492 1026 529 986 z m 340 986 b 424 1072 386 986 424 1026 b 340 1157 424 1119 389 1157 b 256 1072 294 1157 256 1119 b 340 986 256 1026 294 986 z "},"Ẓ":{"ha":639,"x_min":0,"x_max":0,"o":"m 625 0 l 625 39 l 201 39 l 606 1110 l 17 1110 l 17 1071 l 440 1071 l 31 0 z m 333 -211 b 417 -125 379 -211 417 -171 b 333 -40 417 -78 382 -40 b 249 -125 288 -40 249 -78 b 333 -211 249 -171 288 -211 z "},"ẓ":{"ha":603,"x_min":0,"x_max":0,"o":"m 571 0 l 571 39 l 182 39 l 588 882 l 38 882 l 38 843 l 424 843 l 17 0 z m 301 -211 b 385 -125 347 -211 385 -171 b 301 -40 385 -78 350 -40 b 217 -125 256 -40 217 -78 b 301 -211 217 -171 256 -211 z "},"ẞ":{"ha":810,"x_min":0,"x_max":0,"o":"m 301 -42 b 757 388 499 -8 757 124 b 540 647 757 543 668 625 l 715 1110 l 314 1110 b 47 896 129 1110 47 1049 l 47 0 l 193 0 l 193 876 b 419 1071 193 981 258 1071 l 550 1071 l 378 621 b 636 388 544 585 636 551 b 289 -18 636 189 503 50 z "},"Ỳ":{"ha":590,"x_min":0,"x_max":0,"o":"m 361 0 l 361 606 l 582 1110 l 515 1110 l 331 686 l 168 1110 l 11 1110 l 217 588 l 217 0 z m 376 1207 l 247 1394 b 188 1429 231 1418 208 1429 b 129 1374 156 1429 129 1407 b 157 1322 129 1360 138 1339 l 340 1176 z "},"ỳ":{"ha":597,"x_min":0,"x_max":0,"o":"m 225 -60 b 28 -189 197 -139 110 -189 l 28 -237 b 294 -46 154 -237 256 -167 l 588 882 l 539 882 l 342 274 l 165 882 l 11 882 l 272 75 z m 381 979 l 251 1208 b 193 1243 239 1231 219 1243 b 133 1189 157 1243 133 1218 b 161 1136 133 1172 143 1154 l 344 949 z "},"–":{"ha":693,"x_min":0,"x_max":0,"o":"m 669 451 l 669 528 l 21 528 l 21 451 z "},"—":{"ha":1190,"x_min":0,"x_max":0,"o":"m 1167 451 l 1167 528 l 21 528 l 21 451 z "},"‘":{"ha":233,"x_min":0,"x_max":0,"o":"m 200 931 b 122 1017 142 931 122 957 b 157 1133 122 1060 135 1099 b 32 950 93 1108 32 1019 b 114 861 32 896 68 861 b 200 931 149 861 189 881 z "},"’":{"ha":233,"x_min":0,"x_max":0,"o":"m 76 861 b 200 1043 140 885 200 974 b 119 1133 200 1097 165 1133 b 32 1063 83 1133 44 1113 b 111 976 90 1063 111 1035 b 76 861 111 933 100 894 z "},"‚":{"ha":233,"x_min":0,"x_max":0,"o":"m 76 -115 b 200 68 140 -90 200 -1 b 119 157 200 122 165 157 b 32 86 83 157 44 138 b 111 1 90 86 111 61 b 76 -115 111 -42 100 -82 z "},"“":{"ha":414,"x_min":0,"x_max":0,"o":"m 381 931 b 303 1017 322 931 303 957 b 338 1133 303 1060 313 1099 b 213 950 272 1108 213 1019 b 294 861 213 896 249 861 b 381 931 329 861 368 881 z m 200 931 b 122 1017 142 931 122 957 b 157 1133 122 1060 135 1099 b 32 950 93 1108 32 1019 b 114 861 32 896 68 861 b 200 931 149 861 189 881 z "},"”":{"ha":414,"x_min":0,"x_max":0,"o":"m 76 861 b 200 1043 140 885 200 974 b 119 1133 200 1097 165 1133 b 32 1063 83 1133 44 1113 b 111 976 90 1063 111 1035 b 76 861 111 933 100 894 z m 256 861 b 381 1043 319 885 381 974 b 300 1133 381 1097 346 1133 b 213 1063 264 1133 224 1113 b 292 976 269 1063 292 1035 b 256 861 292 933 279 894 z "},"„":{"ha":414,"x_min":0,"x_max":0,"o":"m 76 -115 b 200 68 140 -90 200 -1 b 119 157 200 122 165 157 b 32 86 83 157 44 138 b 111 1 90 86 111 61 b 76 -115 111 -42 100 -82 z m 256 -115 b 381 68 319 -90 381 -1 b 300 157 381 122 346 157 b 213 86 264 157 224 138 b 292 1 269 86 292 61 b 256 -115 292 -42 279 -82 z "},"•":{"ha":467,"x_min":0,"x_max":0,"o":"m 436 599 b 232 804 436 710 344 804 b 29 599 122 804 29 711 b 232 397 29 486 119 397 b 436 599 346 397 436 489 z "},"…":{"ha":700,"x_min":0,"x_max":0,"o":"m 118 -12 b 200 72 165 -12 200 25 b 118 157 200 119 165 157 b 32 72 71 157 32 119 b 118 -12 32 25 71 -12 z m 351 -12 b 433 72 399 -12 433 25 b 351 157 433 119 399 157 b 265 72 304 157 265 119 b 351 -12 265 25 304 -12 z m 585 -12 b 667 72 632 -12 667 25 b 585 157 667 119 632 157 b 499 72 538 157 499 119 b 585 -12 499 25 538 -12 z "},"‰":{"ha":1046,"x_min":0,"x_max":0,"o":"m 147 567 b 338 858 235 567 338 656 b 183 1121 338 1004 285 1121 b 0 826 97 1121 0 1032 b 147 567 0 676 51 567 z m 169 614 b 71 836 108 614 71 711 b 164 1069 71 946 100 1069 b 271 835 226 1069 271 956 b 169 614 271 726 233 614 z m 217 0 l 515 1110 l 458 1110 l 164 0 z m 492 -3 b 682 289 578 -3 682 86 b 528 551 682 435 628 551 b 343 257 442 551 343 463 b 492 -3 343 107 396 -3 z m 513 44 b 415 267 453 44 415 142 b 508 500 415 376 444 500 b 614 265 569 500 614 386 b 513 44 614 157 578 44 z m 856 -3 b 1046 289 942 -3 1046 86 b 892 551 1046 435 992 551 b 707 257 806 551 707 463 b 856 -3 707 107 760 -3 z m 876 44 b 779 267 817 44 779 142 b 872 500 779 376 808 500 b 978 265 933 500 978 386 b 876 44 978 157 942 44 z "},"′":{"ha":410,"x_min":0,"x_max":0,"o":"m 381 1008 b 410 1065 400 1026 410 1046 b 319 1150 410 1110 365 1150 b 251 1110 296 1150 269 1139 l 0 718 l 44 685 z "},"″":{"ha":660,"x_min":0,"x_max":0,"o":"m 381 1008 b 410 1065 400 1026 410 1046 b 319 1150 410 1110 365 1150 b 251 1110 296 1150 269 1139 l 0 718 l 44 685 z m 631 1008 b 660 1065 650 1026 660 1046 b 569 1150 660 1110 615 1150 b 501 1110 546 1150 519 1139 l 250 718 l 294 685 z "},"‹":{"ha":276,"x_min":0,"x_max":0,"o":"m 253 0 l 101 440 l 253 882 l 178 882 l 22 440 l 178 0 z "},"›":{"ha":276,"x_min":0,"x_max":0,"o":"m 99 0 l 253 442 l 99 882 l 22 882 l 175 442 l 22 0 z "},"⁄":{"ha":107,"x_min":0,"x_max":0,"o":"m -131 0 l 317 1110 l 231 1110 l -208 0 z "},"⁰":{"ha":565,"x_min":0,"x_max":0,"o":"m 247 567 b 532 858 378 567 532 656 b 301 1121 532 1004 451 1121 b 26 826 172 1121 26 1032 b 247 567 26 676 104 567 z m 279 614 b 133 836 189 614 133 711 b 272 1069 133 946 176 1069 b 431 835 365 1069 431 956 b 279 614 431 726 376 614 z "},"⁴":{"ha":424,"x_min":0,"x_max":0,"o":"m 361 569 l 361 669 l 411 669 l 411 713 l 361 713 l 361 1153 l -6 669 l 254 669 l 254 569 z m 254 713 l 133 713 l 254 872 z "},"⁵":{"ha":336,"x_min":0,"x_max":0,"o":"m 44 539 b 324 832 215 579 324 696 b 151 1032 324 913 285 982 l 325 1032 l 325 1110 l 64 1110 l 1 979 b 221 790 164 954 221 881 b 44 589 221 676 132 622 z "},"⁶":{"ha":413,"x_min":0,"x_max":0,"o":"m 288 1124 b 25 772 108 1074 25 925 b 211 556 25 639 88 556 b 389 729 324 556 389 624 b 229 893 389 828 331 893 b 125 858 188 893 151 882 b 297 1082 139 985 181 1047 z m 221 603 b 119 790 149 603 119 679 b 207 828 119 817 174 828 b 289 711 265 828 289 794 b 221 603 289 643 274 603 z "},"⁷":{"ha":389,"x_min":0,"x_max":0,"o":"m 188 569 l 386 1110 l 8 1110 l 8 1014 l 278 1014 l 121 569 z "},"⁸":{"ha":439,"x_min":0,"x_max":0,"o":"m 286 889 b 389 1011 353 922 389 963 b 218 1122 389 1079 321 1122 b 38 990 103 1122 38 1068 b 133 861 38 942 63 897 b 19 707 63 829 19 776 b 213 556 19 621 86 556 b 411 721 332 556 411 615 b 286 889 411 801 365 851 z m 185 839 b 333 703 274 810 333 761 b 214 604 333 649 282 604 b 104 710 149 604 104 644 b 185 839 104 763 132 813 z m 242 910 b 115 1029 172 936 115 986 b 204 1078 115 1065 156 1078 b 313 1007 274 1078 313 1053 b 242 910 313 967 283 932 z "},"⁹":{"ha":410,"x_min":0,"x_max":0,"o":"m 96 553 b 381 910 306 604 381 761 b 199 1121 381 1049 317 1121 b 18 956 85 1121 18 1056 b 188 786 18 857 82 786 b 281 814 226 786 257 796 b 85 596 264 708 193 619 z m 285 872 b 224 850 268 856 247 850 b 111 982 147 850 111 913 b 183 1078 111 1038 135 1078 b 285 907 249 1078 285 1008 z "},"₀":{"ha":565,"x_min":0,"x_max":0,"o":"m 247 -3 b 532 289 378 -3 532 86 b 301 551 532 435 451 551 b 26 257 172 551 26 463 b 247 -3 26 107 104 -3 z m 279 44 b 133 267 189 44 133 142 b 272 500 133 376 176 500 b 431 265 365 500 431 386 b 279 44 431 157 376 44 z "},"₁":{"ha":196,"x_min":0,"x_max":0,"o":"m 163 0 l 163 574 l 4 524 l 4 489 b 57 458 35 489 57 483 l 57 0 z "},"₂":{"ha":396,"x_min":0,"x_max":0,"o":"m 381 0 l 381 71 l 129 71 b 367 392 288 189 367 292 b 210 551 367 458 333 551 b 46 472 140 551 83 521 l 76 447 b 174 496 110 479 135 496 b 261 379 249 496 261 433 b -8 0 261 272 213 211 z "},"₃":{"ha":353,"x_min":0,"x_max":0,"o":"m 50 -11 b 329 207 167 7 329 69 b 242 325 329 269 296 308 b 319 444 282 351 319 396 b 169 551 319 507 257 551 b 7 483 103 551 38 525 l 36 464 b 133 499 75 492 107 499 b 224 422 193 499 224 463 b 106 326 224 374 176 342 l 106 281 b 144 292 117 289 129 292 b 238 200 200 292 238 256 b 29 24 238 114 153 54 z "},"₄":{"ha":424,"x_min":0,"x_max":0,"o":"m 361 0 l 361 100 l 411 100 l 411 143 l 361 143 l 361 583 l -6 100 l 254 100 l 254 0 z m 254 143 l 133 143 l 254 303 z "},"₅":{"ha":336,"x_min":0,"x_max":0,"o":"m 44 -31 b 324 263 215 10 324 126 b 151 463 324 343 285 413 l 325 463 l 325 540 l 64 540 l 1 410 b 221 221 164 385 221 311 b 44 19 221 107 132 53 z "},"₆":{"ha":413,"x_min":0,"x_max":0,"o":"m 288 554 b 25 203 108 504 25 356 b 211 -14 25 69 88 -14 b 389 160 324 -14 389 54 b 229 324 389 258 331 324 b 125 289 188 324 151 313 b 297 513 139 415 181 478 z m 221 33 b 119 221 149 33 119 110 b 207 258 119 247 174 258 b 289 142 265 258 289 225 b 221 33 289 74 274 33 z "},"₇":{"ha":389,"x_min":0,"x_max":0,"o":"m 188 0 l 386 540 l 8 540 l 8 444 l 278 444 l 121 0 z "},"₈":{"ha":439,"x_min":0,"x_max":0,"o":"m 286 319 b 389 442 353 353 389 393 b 218 553 389 510 321 553 b 38 421 103 553 38 499 b 133 292 38 372 63 328 b 19 138 63 260 19 207 b 213 -14 19 51 86 -14 b 411 151 332 -14 411 46 b 286 319 411 232 365 282 z m 185 269 b 333 133 274 240 333 192 b 214 35 333 79 282 35 b 104 140 149 35 104 75 b 185 269 104 193 132 243 z m 242 340 b 115 460 172 367 115 417 b 204 508 115 496 156 508 b 313 438 274 508 313 483 b 242 340 313 397 283 363 z "},"₉":{"ha":410,"x_min":0,"x_max":0,"o":"m 96 -17 b 381 340 306 35 381 192 b 199 551 381 479 317 551 b 18 386 85 551 18 486 b 188 217 18 288 82 217 b 281 244 226 217 257 226 b 85 26 264 139 193 50 z m 285 303 b 224 281 268 286 247 281 b 111 413 147 281 111 343 b 183 508 111 468 135 508 b 285 338 249 508 285 439 z "},"₩":{"ha":840,"x_min":0,"x_max":0,"o":"m 610 0 l 660 415 l 817 415 l 817 492 l 669 492 l 690 665 l 817 665 l 817 742 l 700 742 l 746 1110 l 703 1110 l 656 742 l 472 742 l 469 761 l 536 1110 l 492 1110 l 449 846 l 408 1110 l 292 1110 l 358 742 l 236 742 l 197 1110 l 82 1110 l 125 742 l 25 742 l 25 665 l 133 665 l 153 492 l 25 492 l 25 415 l 161 415 l 208 0 l 325 0 l 400 415 l 421 415 l 493 0 z m 625 492 l 517 492 l 486 665 l 646 665 z m 371 492 l 264 492 l 246 665 l 371 665 l 388 576 z m 581 136 l 531 415 l 615 415 z m 304 136 l 274 415 l 357 415 z "},"₪":{"ha":860,"x_min":0,"x_max":0,"o":"m 588 297 l 588 669 b 367 882 588 804 501 882 l 50 882 l 50 0 l 139 0 l 139 729 l 365 729 b 499 567 444 729 499 679 l 499 297 z m 810 0 l 810 882 l 721 882 l 721 153 l 494 153 b 361 315 415 153 361 203 l 361 585 l 272 585 l 272 213 b 493 0 272 78 358 0 z "},"€":{"ha":775,"x_min":0,"x_max":0,"o":"m 679 168 b 463 19 631 96 546 19 b 238 426 346 19 260 175 l 461 426 l 482 483 l 232 483 b 231 557 231 507 231 532 l 231 604 l 526 604 l 547 661 l 233 661 b 469 1082 253 926 339 1082 b 663 976 540 1082 624 1035 l 683 1035 b 476 1121 624 1094 574 1121 b 83 661 231 1121 96 944 l 53 661 l 38 604 l 82 604 l 82 483 l 53 483 l 38 426 l 83 426 b 417 -22 107 114 206 -22 b 735 168 553 -22 669 36 z "},"₭":{"ha":821,"x_min":0,"x_max":0,"o":"m 758 0 l 469 617 l 821 617 l 821 693 l 411 693 l 746 1110 l 686 1110 l 338 693 l 279 693 l 279 1110 l 135 1110 l 135 693 l 0 693 l 0 617 l 135 617 l 135 0 l 279 0 l 279 556 l 322 606 l 601 0 z "},"₮":{"ha":568,"x_min":0,"x_max":0,"o":"m 360 0 l 360 449 l 526 521 l 526 597 l 360 525 l 360 671 l 526 743 l 526 819 l 360 747 l 360 1071 l 557 1071 l 557 1110 l 11 1110 l 11 1071 l 214 1071 l 214 685 l 40 611 l 40 535 l 214 608 l 214 463 l 40 389 l 40 313 l 214 386 l 214 0 z "},"₱":{"ha":771,"x_min":0,"x_max":0,"o":"m 215 0 l 215 372 l 292 372 b 628 600 490 372 592 446 l 771 600 l 771 678 l 640 678 l 640 822 l 771 822 l 771 900 l 629 900 b 376 1110 601 1032 524 1110 l 71 1110 l 71 900 l 0 900 l 0 822 l 71 822 l 71 678 l 0 678 l 0 600 l 71 600 l 71 0 z m 483 600 b 297 415 464 496 414 415 l 215 415 l 215 600 z m 493 678 l 215 678 l 215 822 l 493 822 z m 215 900 l 215 1071 l 292 1071 b 482 900 410 1071 461 1000 z "},"₲":{"ha":731,"x_min":0,"x_max":0,"o":"m 725 13 b 682 201 700 58 682 136 l 682 422 l 465 422 l 465 383 b 557 303 546 379 557 378 b 397 21 557 118 488 21 b 250 146 335 21 285 65 l 731 1182 l 644 1182 l 594 1072 b 417 1121 550 1104 494 1121 b 39 519 144 1121 39 925 b 136 68 39 288 74 147 l 56 -108 l 133 -108 l 192 18 b 351 -22 236 -11 290 -22 b 626 144 521 -22 588 65 b 678 -15 626 99 656 21 z m 218 249 b 190 547 200 331 190 431 b 435 1082 190 882 271 1082 b 574 1026 488 1082 536 1061 z "},"₴":{"ha":588,"x_min":0,"x_max":0,"o":"m 508 171 b 328 28 489 100 426 28 b 161 233 229 28 161 99 b 279 469 161 339 203 393 l 554 469 l 554 514 l 325 514 b 425 611 360 546 396 579 l 554 611 l 554 657 l 464 657 b 531 854 507 715 531 779 b 258 1121 531 1007 429 1121 b 50 1000 153 1121 106 1078 l 93 967 b 251 1071 131 1026 178 1071 b 404 881 340 1071 404 1007 b 282 657 404 793 374 739 l 18 657 l 18 611 l 233 611 b 132 514 194 575 156 538 l 18 514 l 18 469 l 94 469 b 19 256 51 408 19 333 b 325 -22 19 100 146 -22 b 560 139 456 -22 522 42 z "},"₸":{"ha":568,"x_min":0,"x_max":0,"o":"m 360 0 l 360 890 l 557 890 l 557 929 l 11 929 l 11 890 l 214 890 l 214 0 z m 557 1071 l 557 1110 l 11 1110 l 11 1071 z "},"₹":{"ha":696,"x_min":0,"x_max":0,"o":"m 374 121 b 542 -17 374 42 421 -17 b 599 -8 574 -17 582 -12 b 518 121 544 7 518 50 l 518 329 b 363 551 518 461 454 535 b 514 786 457 581 507 671 l 658 786 l 658 831 l 515 831 b 413 1064 513 933 478 1015 l 658 1064 l 658 1110 l 50 1110 l 50 1071 l 163 1071 b 369 831 293 1071 363 997 l 50 831 l 50 786 l 371 786 b 249 575 367 654 325 575 l 231 575 l 231 535 l 250 535 b 374 386 324 535 374 488 z "},"₺":{"ha":768,"x_min":0,"x_max":0,"o":"m 292 0 b 743 275 547 0 688 76 l 607 324 b 339 39 575 151 493 39 l 299 39 l 299 397 l 521 493 l 521 569 l 299 474 l 299 619 l 521 715 l 521 792 l 299 696 l 299 1110 l 154 1110 l 154 635 l 35 583 l 35 507 l 154 558 l 154 413 l 35 361 l 35 285 l 154 336 l 154 0 z "},"₼":{"ha":660,"x_min":0,"x_max":0,"o":"m 613 0 l 613 451 b 328 665 613 604 531 665 l 328 1110 l 267 1110 l 267 660 b 47 410 161 646 47 592 l 47 0 l 108 0 l 108 451 b 265 618 108 553 161 618 l 267 618 l 267 225 l 328 225 l 328 610 b 467 432 410 586 467 515 l 467 0 z "},"₽":{"ha":668,"x_min":0,"x_max":0,"o":"m 265 0 l 265 339 l 499 339 l 499 378 l 265 378 l 265 479 l 286 479 b 638 806 542 479 638 583 b 371 1110 638 994 567 1110 l 121 1110 l 121 519 l 15 519 l 15 479 l 121 479 l 121 378 l 15 378 l 15 339 l 121 339 l 121 0 z m 265 519 l 265 1071 l 286 1071 b 490 799 458 1071 490 943 b 292 519 490 661 461 519 z "},"₾":{"ha":785,"x_min":0,"x_max":0,"o":"m 656 0 b 203 726 292 314 203 443 b 318 1035 203 901 236 994 l 318 722 l 385 722 l 385 1056 b 485 1061 403 1058 429 1061 l 485 722 l 551 722 l 551 1051 b 731 894 654 1028 696 963 l 754 914 b 551 1107 724 1015 660 1081 l 551 1221 l 485 1221 l 485 1118 b 385 1121 465 1119 446 1121 l 385 1221 l 318 1221 l 318 1111 b 58 753 138 1078 58 949 b 521 83 58 401 310 201 l 60 83 l 60 0 z "},"ℓ":{"ha":624,"x_min":0,"x_max":0,"o":"m 354 -21 b 228 226 300 6 236 54 b 586 889 400 354 586 592 b 446 1133 586 1043 536 1133 b 108 350 249 1133 108 711 b 118 208 108 299 111 250 b 19 164 88 190 54 175 l 19 125 b 126 163 50 129 86 143 b 344 -60 161 13 242 -33 z m 226 297 b 426 1100 232 519 294 1100 b 479 967 468 1100 479 1042 b 226 297 479 760 393 472 z "},"№":{"ha":1165,"x_min":0,"x_max":0,"o":"m 615 0 l 615 1110 l 554 1110 l 554 354 l 178 1110 l 50 1110 l 50 1 l 111 1 l 111 938 l 596 0 z m 893 607 b 1119 876 1029 607 1119 679 b 913 1121 1119 1039 1056 1121 b 689 851 743 1121 689 1008 b 893 607 689 690 746 607 z m 917 660 b 800 885 838 660 800 736 b 889 1065 800 1017 829 1065 b 1014 833 960 1065 1014 989 b 917 660 1014 704 976 660 z m 1093 428 l 1093 504 l 718 504 l 718 428 z "},"℗":{"ha":1176,"x_min":0,"x_max":0,"o":"m 588 36 b 124 549 318 36 124 279 b 588 1063 124 819 318 1063 b 1051 549 857 1063 1051 819 b 588 36 1051 279 857 36 z m 588 -22 b 1139 549 890 -22 1139 238 b 588 1121 1139 861 890 1121 b 35 549 285 1121 35 861 b 588 -22 35 238 285 -22 z m 514 258 l 514 411 l 572 411 b 839 618 767 411 839 478 b 636 811 839 738 786 811 l 404 811 l 404 258 z m 514 438 l 514 786 l 572 786 b 728 614 703 786 728 706 b 576 438 728 526 706 438 z "},"™":{"ha":800,"x_min":0,"x_max":0,"o":"m 224 693 l 224 1072 l 326 1072 l 326 1110 l 28 1110 l 28 1072 l 135 1072 l 135 693 z m 751 693 l 751 1110 l 678 1110 l 600 910 l 499 1110 l 397 1110 l 397 693 l 479 693 l 479 982 l 579 754 l 669 972 l 669 693 z "},"−":{"ha":426,"x_min":0,"x_max":0,"o":"m 410 531 l 410 589 l 19 589 l 19 531 z "},"≈":{"ha":801,"x_min":0,"x_max":0,"o":"m 681 865 b 568 725 671 756 608 725 b 256 892 472 725 419 892 b 46 675 142 892 54 811 l 124 675 b 228 817 147 788 189 817 b 539 646 322 817 379 646 b 754 865 650 646 753 728 z m 681 588 b 568 447 671 478 608 447 b 256 614 472 447 419 614 b 46 397 142 614 54 533 l 124 397 b 228 539 147 510 189 539 b 539 368 322 539 379 368 b 754 588 650 368 753 450 z "},"≠":{"ha":406,"x_min":0,"x_max":0,"o":"m 375 463 l 375 507 l 201 507 l 251 604 l 375 604 l 375 650 l 275 650 l 368 826 l 314 826 l 224 650 l 29 650 l 29 604 l 200 604 l 150 507 l 29 507 l 29 463 l 126 463 l 33 281 l 83 281 l 178 463 z "},"≤":{"ha":336,"x_min":0,"x_max":0,"o":"m 308 364 l 118 556 l 315 753 l 208 725 l 19 533 l 213 339 z m 383 169 l 383 228 l -7 228 l -7 169 z "},"≥":{"ha":336,"x_min":0,"x_max":0,"o":"m 126 364 l 315 556 l 122 750 l 24 725 l 217 533 l 19 338 z m 390 169 l 390 228 l 0 228 l 0 169 z "},"†":{"ha":426,"x_min":0,"x_max":0,"o":"m 246 331 l 246 888 l 410 888 l 410 946 l 246 946 l 246 1110 l 178 1110 l 178 946 l 19 946 l 19 888 l 178 888 l 178 331 z "},"‡":{"ha":426,"x_min":0,"x_max":0,"o":"m 246 0 l 246 164 l 410 164 l 410 222 l 246 222 l 246 888 l 410 888 l 410 946 l 246 946 l 246 1110 l 178 1110 l 178 946 l 19 946 l 19 888 l 178 888 l 178 222 l 19 222 l 19 164 l 178 164 l 178 0 z "}}}
